paperwork_outline.sfdir
StartChar: exclam
Encoding: 33 33 65
Width: 172
Flags: MW
HStem: 0 146<12 157 12 157> 134 69<23 147 23 147> 680 20G<12 157 157 157>
VStem: 12 145<0 146 192 700>
LayerCount: 2
Back
Fore
SplineSet
157 192 m 1x70
 12 192 l 1
 12 700 l 1
 157 700 l 1
 157 192 l 1x70
23 689 m 1
 23 203 l 1
 147 203 l 1
 147 689 l 1
 23 689 l 1
157 0 m 1xb0
 12 0 l 1
 12 146 l 1
 157 146 l 1
 157 0 l 1xb0
23 134 m 1x70
 23 11 l 1
 147 11 l 1
 147 134 l 1
 23 134 l 1x70
EndSplineSet
EndChar
StartChar: ampersand
Encoding: 38 38 26
Width: 489
Flags: MW
HStem: 0 21G<89 286 89 89 286 286> 592 20G<99 294 294 294>
LayerCount: 2
Back
Fore
SplineSet
464 179 m 1
 421 135 l 1
 456 100 l 1
 359 2 l 1
 323 37 l 1
 286 0 l 1
 278 6 l 1
 315 44 l 1
 315 44 l 1
 317 46 l 1
 450 179 l 1
 435 193 l 1
 433 195 l 1
 419 210 l 1
 415 214 l 1
 402 226 l 1
 398 230 l 1
 384 245 l 1
 381 247 l 1
 367 262 l 1
 325 220 l 1
 323 218 l 1
 323 218 l 1
 240 135 l 1
 240 135 l 1
 232 127 l 1
 232 127 l 1
 195 89 l 1
 188 98 l 1
 226 135 l 1
 163 197 l 1
 126 160 l 1
 136 147 l 1
 136 147 l 1
 286 0 l 1
 89 0 l 1
 56 33 l 1
 56 33 l 1
 29 62 l 1
 35 69 l 1
 47 58 l 1
 47 58 l 1
 78 25 l 1
 95 8 l 1
 124 8 l 1
 130 8 l 1
 157 8 l 1
 166 8 l 1
 193 8 l 1
 199 8 l 1
 228 8 l 1
 234 8 l 1
 261 8 l 1
 147 125 l 1
 147 125 l 1
 136 133 l 1
 130 141 l 1
 124 145 l 1
 118 152 l 1
 122 156 l 1
 29 62 l 1
 29 257 l 1
 66 295 l 1
 20 338 l 1
 26 347 l 1
 72 301 l 1
 155 384 l 1
 112 430 l 1
 116 434 l 1
 20 338 l 1
 20 536 l 1
 80 596 l 1
 80 596 l 1
 99 612 l 1
 294 612 l 1
 340 569 l 1
 340 554 l 1
 340 554 l 1
 340 374 l 1
 265 299 l 1
 265 299 l 1
 261 295 l 1
 323 233 l 1
 367 276 l 1
 464 179 l 1
149 604 m 1
 122 604 l 1
 249 477 l 1
 332 561 l 1
 288 604 l 1
 261 604 l 1
 253 604 l 1
 226 604 l 1
 220 604 l 1
 193 604 l 1
 184 604 l 1
 157 604 l 1
 149 604 l 1
29 390 m 1
 29 363 l 1
 126 461 l 1
 172 504 l 1
 172 504 l 1
 182 515 l 1
 182 517 l 1
 188 523 l 1
 105 606 l 1
 99 598 l 1
 89 588 l 1
 80 581 l 1
 58 556 l 1
 58 556 l 1
 47 548 l 1
 47 548 l 1
 29 529 l 1
 29 502 l 1
 29 494 l 1
 29 467 l 1
 29 459 l 1
 29 432 l 1
 29 426 l 1
 29 397 l 1
 29 390 l 1
118 438 m 1
 163 392 l 1
 176 405 l 1
 176 405 l 1
 240 471 l 1
 190 523 l 1
 197 515 l 1
 147 467 l 1
 147 467 l 1
 118 438 l 1
37 112 m 1
 37 85 l 1
 255 303 l 1
 265 316 l 1
 265 316 l 1
 330 378 l 1
 330 407 l 1
 330 413 l 1
 330 440 l 1
 330 448 l 1
 330 475 l 1
 330 484 l 1
 330 511 l 1
 330 517 l 1
 330 544 l 1
 249 463 l 1
 249 463 l 1
 195 409 l 1
 182 399 l 1
 176 390 l 1
 176 390 l 1
 176 390 l 1
 170 384 l 1
 170 384 l 1
 163 378 l 1
 163 378 l 1
 80 295 l 1
 80 295 l 1
 72 286 l 1
 72 286 l 1
 37 251 l 1
 37 224 l 1
 37 216 l 1
 37 189 l 1
 37 181 l 1
 37 154 l 1
 37 147 l 1
 37 120 l 1
 37 112 l 1
232 141 m 1
 315 224 l 1
 253 286 l 1
 170 203 l 1
 232 141 l 1
442 100 m 1
 413 127 l 1
 330 44 l 1
 359 17 l 1
 371 29 l 1
 375 33 l 1
 390 48 l 1
 392 50 l 1
 406 64 l 1
 411 69 l 1
 423 81 l 1
 427 85 l 1
 442 100 l 1
EndSplineSet
EndChar
StartChar: period
Encoding: 46 46 66
Width: 170
Flags: MW
HStem: 0 146<12 157 12 157>
VStem: 12 145<0 146>
LayerCount: 2
Back
Fore
SplineSet
157 0 m 1
 12 0 l 1
 12 146 l 1
 157 146 l 1
 157 0 l 1
23 134 m 1
 23 11 l 1
 147 11 l 1
 147 134 l 1
 23 134 l 1
EndSplineSet
EndChar
StartChar: zero
Encoding: 48 48 53
Width: 505
Flags: MW
HStem: 0 144<168 334> 556 144<157 334 168 334 168 334 168 345 168 366 168 371 168 392 168 397 168 416 168 423 168 443 168 449 168 469>
VStem: 22 146<144 556> 157 188<144 556> 334 146<0 556 11 556 31 556 37 556 57 556 61 556 83 556 87 556 109 556 113 556 133 556 144 556 144 556 144 567 144 700>
LayerCount: 2
Back
Fore
SplineSet
469 567 m 1xe8
 480 556 l 1
 480 144 l 1xe8
 345 11 l 1xd0
 334 0 l 1
 168 0 l 1
 33 133 l 1
 22 144 l 1
 22 556 l 1
 168 700 l 1
 334 700 l 1
 469 567 l 1xe8
329 689 m 1
 168 689 l 1
 168 669 l 1
 168 663 l 1
 168 643 l 1
 168 639 l 1
 168 617 l 1
 168 613 l 1
 168 591 l 1
 168 586 l 1
 168 567 l 1
 334 567 l 1
 454 567 l 1
 434 586 l 1
 427 591 l 1
 408 613 l 1
 401 617 l 1
 382 639 l 1
 377 643 l 1
 355 663 l 1
 351 669 l 1
 329 689 l 1
334 556 m 1
 168 556 l 1
 168 144 l 1
 334 144 l 1
 334 556 l 1
33 552 m 1
 33 144 l 1
 52 144 l 1
 59 144 l 1
 79 144 l 1
 85 144 l 1
 105 144 l 1
 109 144 l 1
 131 144 l 1
 135 144 l 1
 157 144 l 1
 157 556 l 1
 157 674 l 1xd0
 135 654 l 1
 131 647 l 1
 109 628 l 1
 105 623 l 1
 85 602 l 1
 79 597 l 1
 59 576 l 1
 52 571 l 1
 33 552 l 1
334 113 m 1xe8
 334 133 l 1
 168 133 l 1
 48 133 l 1
 68 113 l 1
 74 109 l 1
 94 87 l 1
 100 83 l 1
 120 61 l 1
 124 57 l 1
 146 37 l 1
 150 31 l 1
 172 11 l 1
 334 11 l 1
 334 31 l 1
 334 37 l 1
 334 57 l 1
 334 61 l 1
 334 83 l 1
 334 87 l 1
 334 109 l 1
 334 113 l 1xe8
469 150 m 1
 469 556 l 1
 449 556 l 1
 443 556 l 1
 423 556 l 1
 416 556 l 1
 397 556 l 1
 392 556 l 1
 371 556 l 1
 366 556 l 1
 345 556 l 1
 345 144 l 1
 345 26 l 1xd0
 366 46 l 1
 371 52 l 1
 392 72 l 1
 397 78 l 1
 416 98 l 1
 423 102 l 1
 443 124 l 1
 449 129 l 1
 469 150 l 1
EndSplineSet
EndChar
StartChar: one
Encoding: 49 49 54
Width: 318
Flags: MW
HStem: 0 21G<150 295 150 150> 557 144<8 150 8 150 8 161>
VStem: 8 153<557 675 11 701 11 701> 150 145<0 557 0 557 0 588 0 592 0 614 0 618 0 640 0 644 0 664 0 670 0 690 0 690 0 701>
LayerCount: 2
Back
Fore
SplineSet
150 701 m 1xd0
 295 557 l 1
 295 0 l 1
 150 0 l 1
 150 557 l 1xd0
 8 557 l 1
 8 701 l 1xe0
 150 701 l 1xd0
19 568 m 1
 150 568 l 1
 150 588 l 1
 150 592 l 1
 150 614 l 1
 150 618 l 1
 150 640 l 1
 150 644 l 1
 150 664 l 1
 150 670 l 1
 150 690 l 1
 19 690 l 1
 19 670 l 1
 19 664 l 1
 19 644 l 1
 19 640 l 1
 19 618 l 1
 19 614 l 1
 19 592 l 1
 19 588 l 1
 19 568 l 1
285 11 m 1
 285 553 l 1
 161 675 l 1
 161 557 l 1
 161 11 l 1xe0
 285 11 l 1
EndSplineSet
EndChar
StartChar: two
Encoding: 50 50 55
Width: 451
Flags: MW
HStem: 0 144<161 434> 133 149<26 284 26 284 41 284 41 284 161 284 161 423> 271 146<150 288 161 288 161 288> 406 162<150 150 150 150 161 161 161 288 52 408> 557 144<41 288 41 288 41 299>
VStem: 15 146<144 271> 288 146<0 271 417 557>
LayerCount: 2
Back
Fore
SplineSet
288 271 m 1xae
 161 271 l 1
 161 144 l 1
 434 144 l 1
 434 0 l 1
 161 0 l 1xae
 26 133 l 1
 26 133 l 1x56
 15 144 l 1
 15 271 l 1xae
 150 406 l 1
 150 406 l 1x96
 161 417 l 1
 288 417 l 1
 288 557 l 1
 41 557 l 1
 41 701 l 1
 288 701 l 1
 434 557 l 1
 434 417 l 1
 288 271 l 1xae
299 557 m 1
 299 417 l 1
 319 417 l 1
 325 417 l 1
 345 417 l 1
 351 417 l 1
 371 417 l 1
 375 417 l 1
 397 417 l 1
 401 417 l 1
 423 417 l 1
 423 553 l 1
 401 572 l 1
 397 577 l 1
 375 598 l 1
 371 603 l 1
 351 625 l 1
 345 629 l 1
 325 649 l 1
 319 655 l 1
 299 675 l 1
 299 557 l 1
52 568 m 1x56
 288 568 l 1
 288 587 l 1
 288 592 l 1
 288 614 l 1
 288 618 l 1
 288 640 l 1
 288 644 l 1
 288 664 l 1
 288 670 l 1
 288 690 l 1
 52 690 l 1
 52 670 l 1
 52 664 l 1
 52 644 l 1
 52 640 l 1
 52 618 l 1
 52 614 l 1
 52 592 l 1
 52 587 l 1
 52 568 l 1x56
288 406 m 1
 161 406 l 1
 161 387 l 1
 161 380 l 1
 161 360 l 1
 161 354 l 1
 161 334 l 1
 161 330 l 1
 161 308 l 1
 161 304 l 1
 161 282 l 1
 284 282 l 1
 303 304 l 1
 310 308 l 1
 329 330 l 1
 336 334 l 1
 356 354 l 1
 360 360 l 1
 382 380 l 1
 386 387 l 1
 408 406 l 1
 288 406 l 1
423 133 m 1
 161 133 l 1
 41 133 l 1
 166 11 l 1
 423 11 l 1
 423 133 l 1
150 144 m 1xae
 150 271 l 1
 150 391 l 1
 128 371 l 1
 124 365 l 1
 104 345 l 1
 98 339 l 1
 78 319 l 1
 72 312 l 1
 52 293 l 1
 46 288 l 1
 26 266 l 1
 26 144 l 1
 46 144 l 1
 52 144 l 1
 72 144 l 1
 78 144 l 1
 98 144 l 1
 104 144 l 1
 124 144 l 1
 128 144 l 1
 150 144 l 1xae
EndSplineSet
EndChar
StartChar: three
Encoding: 51 51 56
Width: 454
Flags: MW
HStem: 0 146<27 290 27 290> 135 148<106 286 106 301 106 410 38 286 106 425 106 425> 272 146<95 290 95 290> 407 161<106 290 106 106 38 301 38 410> 557 144<27 290 27 290 27 301>
VStem: 95 206<272 283 283 298 298 392 146 407 146 418 146 418> 290 146<146 272 146 272 146 407 146 407 418 557>
LayerCount: 2
Back
Fore
SplineSet
436 557 m 1xaa
 436 418 l 1
 436 418 l 1
 436 418 l 1
 364 346 l 1
 436 272 l 1
 436 146 l 1xaa
 425 135 l 1
 425 135 l 1x54
 290 0 l 1
 27 0 l 1
 27 146 l 1
 290 146 l 1
 290 272 l 1xaa
 95 272 l 1
 95 418 l 1xac
 290 418 l 1
 290 557 l 1
 27 557 l 1
 27 701 l 1
 290 701 l 1
 436 557 l 1xaa
286 11 m 1
 410 135 l 1
 38 135 l 1x52
 38 11 l 1
 286 11 l 1
286 283 m 1
 290 287 l 1
 290 407 l 1
 106 407 l 1
 106 387 l 1
 106 381 l 1
 106 361 l 1
 106 355 l 1
 106 335 l 1
 106 329 l 1
 106 309 l 1
 106 305 l 1
 106 283 l 1
 286 283 l 1
425 146 m 1xac
 425 268 l 1
 301 392 l 1
 301 298 l 1
 301 298 l 1
 301 283 l 1
 301 283 l 1x54
 301 146 l 1
 425 146 l 1xac
391 387 m 1
 410 407 l 1
 301 407 l 1
 356 353 l 1
 358 355 l 1
 364 361 l 1
 384 381 l 1
 391 387 l 1
38 568 m 1
 290 568 l 1
 290 588 l 1
 290 592 l 1
 290 614 l 1
 290 618 l 1
 290 640 l 1
 290 644 l 1
 290 664 l 1
 290 670 l 1
 290 690 l 1x92
 38 690 l 1
 38 670 l 1
 38 664 l 1
 38 644 l 1
 38 640 l 1
 38 618 l 1
 38 614 l 1
 38 592 l 1
 38 588 l 1
 38 568 l 1
301 675 m 1xac
 301 557 l 1
 301 418 l 1
 323 418 l 1
 327 418 l 1
 349 418 l 1
 354 418 l 1
 373 418 l 1
 380 418 l 1
 399 418 l 1
 406 418 l 1
 425 418 l 1
 425 553 l 1
 406 572 l 1
 399 577 l 1
 380 598 l 1
 373 603 l 1
 354 625 l 1
 349 629 l 1
 327 648 l 1
 323 655 l 1
 301 675 l 1xac
EndSplineSet
EndChar
StartChar: four
Encoding: 52 52 57
Width: 454
Flags: MW
HStem: 0 21G<281 425 281 281> 271 147<165 281> 682 20G<18 165 165 165>
VStem: 18 147<418 702> 154 137<418 689> 281 144<0 271 271 271 282 407 407 407 418 700 0 700>
LayerCount: 2
Back
Fore
SplineSet
281 700 m 1xf4
 425 700 l 1
 425 0 l 1
 281 0 l 1
 281 271 l 1
 165 271 l 1
 18 418 l 1
 18 418 l 1
 18 418 l 1
 18 702 l 1
 165 702 l 1
 165 418 l 1
 281 418 l 1
 281 700 l 1xf4
29 691 m 1
 29 418 l 1
 49 418 l 1
 55 418 l 1
 75 418 l 1
 81 418 l 1
 101 418 l 1
 105 418 l 1
 127 418 l 1
 132 418 l 1
 154 418 l 1
 154 691 l 1xe8
 132 691 l 1
 127 691 l 1
 105 691 l 1
 101 691 l 1
 81 691 l 1
 75 691 l 1
 55 691 l 1
 49 691 l 1
 29 691 l 1
169 282 m 1
 281 282 l 1
 281 407 l 1xf4
 44 407 l 1
 169 282 l 1
414 11 m 1
 414 689 l 1
 291 689 l 1
 291 418 l 1
 291 271 l 1
 291 11 l 1xe8
 414 11 l 1
EndSplineSet
EndChar
StartChar: five
Encoding: 53 53 58
Width: 454
Flags: MW
HStem: 0 144<24 296 24 296> 133 137<172 296 172 296 172 414 172 429 172 429> 259 146<168 296 24 168> 394 172<24 35 24 35 50 50 50 168 168 296 307 307 307 307> 555 143<24 425 35 35 35 55 55 59 59 81 81 85 85 107 107 111 111 131 131 137 137 157 168 168 168 425>
VStem: 24 144<0 259 144 259 405 555> 296 144<133 259 144 259 144 259 144 292 144 296 144 318 144 322 144 342 144 348 144 368 144 374 144 394 144 394>
LayerCount: 2
Back
Fore
SplineSet
307 394 m 1x96
 440 259 l 1
 440 144 l 1xae
 429 133 l 1
 429 133 l 1x56
 296 0 l 1
 24 0 l 1
 24 144 l 1
 296 144 l 1
 296 259 l 1
 168 259 l 1xae
 35 394 l 1
 35 394 l 1x96
 24 405 l 1
 24 555 l 1xae
 24 566 l 1x96
 24 698 l 1
 425 698 l 1
 425 555 l 1
 168 555 l 1
 168 405 l 1
 296 405 l 1xae
 307 394 l 1
 307 394 l 1x96
35 688 m 1
 35 566 l 1
 168 566 l 1
 414 566 l 1
 414 688 l 1
 35 688 l 1
55 555 m 1xae
 35 555 l 1
 35 405 l 1
 55 405 l 1
 59 405 l 1
 81 405 l 1
 85 405 l 1
 107 405 l 1
 111 405 l 1
 131 405 l 1
 137 405 l 1
 157 405 l 1
 157 555 l 1
 137 555 l 1
 131 555 l 1
 111 555 l 1
 107 555 l 1
 85 555 l 1
 81 555 l 1
 59 555 l 1
 55 555 l 1xae
172 270 m 1x56
 296 270 l 1
 296 292 l 1
 296 296 l 1
 296 318 l 1
 296 322 l 1
 296 342 l 1
 296 348 l 1
 296 368 l 1
 296 374 l 1
 296 394 l 1
 168 394 l 1
 50 394 l 1
 70 374 l 1
 76 368 l 1
 96 348 l 1
 100 342 l 1
 122 322 l 1
 126 318 l 1
 148 296 l 1
 153 292 l 1
 172 270 l 1x56
290 11 m 1
 414 133 l 1
 296 133 l 1
 35 133 l 1
 35 11 l 1
 290 11 l 1
409 144 m 1xae
 429 144 l 1
 429 255 l 1
 409 276 l 1
 403 281 l 1
 383 302 l 1
 379 307 l 1
 357 326 l 1
 353 333 l 1
 331 353 l 1
 327 359 l 1
 307 379 l 1
 307 259 l 1
 307 144 l 1
 327 144 l 1
 331 144 l 1
 353 144 l 1
 357 144 l 1
 379 144 l 1
 383 144 l 1
 403 144 l 1
 409 144 l 1xae
EndSplineSet
EndChar
StartChar: six
Encoding: 54 54 59
Width: 474
Flags: MW
HStem: 0 146<166 316 22 166> 135 148<33 316 49 316 49 316 166 316> 272 144<155 155 166 316 155 166> 405 161<166 312 166 373> 555 146<22 384 155 384 166 384 166 384>
VStem: 22 144<146 272 283 405 416 555> 155 172<146 272> 155 229<272 701 416 701 555 675 675 675 690 690> 316 144<11 272 30 272 37 272 57 272 63 272 83 272 87 272 109 272 113 272 135 272 146 272 146 272 146 283>
LayerCount: 2
Back
Fore
SplineSet
449 283 m 1x5480
 460 272 l 1
 460 146 l 1xac80
 327 11 l 1xaa
 316 0 l 1
 166 0 l 1xac80
 33 135 l 1x5480
 22 146 l 1
 22 555 l 1xac80
 155 690 l 1xaa
 166 701 l 1xac80
 384 701 l 1
 384 555 l 1xa9
 166 555 l 1
 166 416 l 1
 316 416 l 1xac80
 449 283 l 1x5480
312 405 m 1
 166 405 l 1
 166 283 l 1
 316 283 l 1
 434 283 l 1
 312 405 l 1
316 272 m 1xac80
 166 272 l 1
 166 146 l 1
 316 146 l 1
 316 272 l 1xac80
166 588 m 1
 166 566 l 1
 373 566 l 1x9480
 373 588 l 1
 373 592 l 1
 373 611 l 1
 373 618 l 1
 373 638 l 1
 373 644 l 1
 373 664 l 1
 373 670 l 1
 373 690 l 1
 166 690 l 1
 166 670 l 1
 166 664 l 1
 166 644 l 1
 166 638 l 1
 166 618 l 1
 166 611 l 1
 166 592 l 1
 166 588 l 1
33 551 m 1
 33 146 l 1
 53 146 l 1
 57 146 l 1
 79 146 l 1
 83 146 l 1
 105 146 l 1
 110 146 l 1
 129 146 l 1
 136 146 l 1
 155 146 l 1
 155 272 l 1
 155 416 l 1
 155 555 l 1
 155 675 l 1xaa
 136 655 l 1
 129 648 l 1
 110 629 l 1
 105 622 l 1
 83 603 l 1
 79 596 l 1
 57 577 l 1
 53 572 l 1
 33 551 l 1
316 113 m 1x5480
 316 135 l 1
 166 135 l 1
 49 135 l 1
 68 113 l 1
 75 109 l 1
 94 87 l 1
 99 83 l 1
 120 63 l 1
 125 57 l 1
 147 37 l 1
 151 30 l 1
 170 11 l 1
 316 11 l 1
 316 30 l 1
 316 37 l 1
 316 57 l 1
 316 63 l 1
 316 83 l 1
 316 87 l 1
 316 109 l 1
 316 113 l 1x5480
449 150 m 1
 449 272 l 1
 429 272 l 1
 425 272 l 1
 403 272 l 1
 399 272 l 1
 377 272 l 1
 373 272 l 1
 353 272 l 1
 347 272 l 1
 327 272 l 1
 327 146 l 1
 327 26 l 1xaa
 347 46 l 1
 353 52 l 1
 373 72 l 1
 377 78 l 1
 399 98 l 1
 403 102 l 1
 425 124 l 1
 429 128 l 1
 449 150 l 1
EndSplineSet
EndChar
StartChar: seven
Encoding: 55 55 60
Width: 470
Flags: MW
HStem: 0 21G<305 451 305 305> 416 151<26 159 15 159 15 15> 556 144<15 305 26 26 26 148 159 305 159 159 15 316>
VStem: 15 144<416 556 416 567 416 700> 148 168<427 556 11 556> 305 146<0 556 0 556 0 586 0 591 0 613 0 617 0 639 0 643 0 663 0 669 0 689 0 689 0 700>
LayerCount: 2
Back
Fore
SplineSet
316 689 m 1xa8
 451 556 l 1
 451 0 l 1
 305 0 l 1
 305 556 l 1
 159 556 l 1xb4
 159 416 l 1
 15 416 l 1xd4
 15 556 l 1xb4
 15 567 l 1xd4
 15 700 l 1
 305 700 l 1xb4
 316 689 l 1xa8
148 427 m 1
 148 556 l 1
 26 556 l 1
 26 427 l 1
 148 427 l 1
159 567 m 1xd4
 305 567 l 1
 305 586 l 1
 305 591 l 1
 305 613 l 1
 305 617 l 1
 305 639 l 1
 305 643 l 1
 305 663 l 1
 305 669 l 1
 305 689 l 1
 26 689 l 1
 26 669 l 1
 26 663 l 1
 26 643 l 1
 26 639 l 1
 26 617 l 1
 26 613 l 1
 26 591 l 1
 26 586 l 1
 26 567 l 1
 159 567 l 1xd4
440 11 m 1
 440 552 l 1
 316 674 l 1
 316 556 l 1
 316 11 l 1xa8
 440 11 l 1
EndSplineSet
EndChar
StartChar: eight
Encoding: 56 56 61
Width: 481
Flags: MW
HStem: 0 144<162 321> 133 148<162 321 27 162> 270 146<13 16 27 27 27 44 44 46 46 48 48 53 53 70 70 72 72 75 75 79 79 94 94 98 98 101 101 103 103 120 120 125 125 127 127 129 129 146 13 151 162 321> 405 162<40 321 40 321 166 166 166 321> 556 144<157 321 157 321 157 332 157 351 157 356 157 378 157 382 157 404 157 408 157 428 157 434 157 454>
VStem: 13 144<416 556 416 556> 146 186<144 281 416 556> 321 144<133 270 144 270 144 270 144 405 144 405 416 556>
LayerCount: 2
Back
Fore
SplineSet
465 556 m 1xad
 465 416 l 1
 393 344 l 1
 465 270 l 1
 465 144 l 1xad
 454 133 l 1x55
 321 0 l 1
 162 0 l 1
 151 11 l 1
 151 11 l 1
 16 144 l 1
 16 270 l 1xad
 27 281 l 1x55
 88 342 l 1
 13 416 l 1
 13 556 l 1xad
 146 689 l 1
 146 689 l 1xaa
 157 700 l 1
 321 700 l 1xad
 454 567 l 1x95
 465 556 l 1xad
157 586 m 1
 157 567 l 1
 321 567 l 1
 439 567 l 1x95
 419 586 l 1
 412 591 l 1
 393 613 l 1
 386 617 l 1
 367 639 l 1
 362 643 l 1
 340 663 l 1
 336 669 l 1
 314 689 l 1
 157 689 l 1
 157 669 l 1
 157 663 l 1
 157 643 l 1
 157 639 l 1
 157 617 l 1
 157 613 l 1
 157 591 l 1
 157 586 l 1
321 556 m 1xad
 157 556 l 1
 157 416 l 1
 162 416 l 1
 321 416 l 1
 321 556 l 1xad
321 144 m 1
 321 270 l 1
 162 270 l 1
 162 144 l 1
 321 144 l 1
24 549 m 1
 24 416 l 1
 44 416 l 1
 48 416 l 1
 70 416 l 1
 75 416 l 1
 94 416 l 1
 101 416 l 1
 120 416 l 1
 127 416 l 1
 146 416 l 1
 146 674 l 1xaa
 127 654 l 1
 120 647 l 1
 101 628 l 1
 94 621 l 1
 75 602 l 1
 70 597 l 1
 48 576 l 1
 44 571 l 1
 24 549 l 1
90 353 m 1
 94 349 l 1
 151 405 l 1
 40 405 l 1x55
 59 386 l 1
 64 379 l 1
 85 360 l 1
 90 353 l 1
94 334 m 1
 42 281 l 1
 146 281 l 1x52
 162 281 l 1
 162 281 l 1
 321 281 l 1
 321 405 l 1
 166 405 l 1
 103 342 l 1
 103 342 l 1
 94 334 l 1
129 46 m 1
 151 26 l 1
 151 144 l 1
 151 144 l 1
 151 270 l 1
 129 270 l 1
 125 270 l 1
 103 270 l 1
 98 270 l 1
 79 270 l 1
 72 270 l 1
 53 270 l 1
 46 270 l 1
 27 270 l 1xad
 27 150 l 1
 46 129 l 1
 53 124 l 1
 72 102 l 1
 79 98 l 1
 98 78 l 1
 103 72 l 1
 125 52 l 1
 129 46 l 1
419 113 m 1
 439 133 l 1
 321 133 l 1
 162 133 l 1x55
 162 11 l 1
 314 11 l 1
 336 31 l 1
 340 37 l 1
 362 57 l 1
 367 61 l 1
 386 83 l 1
 393 87 l 1
 412 109 l 1
 419 113 l 1
404 318 m 1
 384 336 l 1
 332 281 l 1x52
 332 270 l 1
 332 270 l 1
 332 144 l 1
 351 144 l 1
 356 144 l 1
 378 144 l 1
 382 144 l 1
 404 144 l 1
 408 144 l 1
 428 144 l 1
 434 144 l 1
 454 144 l 1xaa
 454 266 l 1
 434 288 l 1
 428 292 l 1
 408 312 l 1
 404 318 l 1
454 421 m 1
 454 556 l 1
 434 556 l 1
 428 556 l 1
 408 556 l 1
 404 556 l 1
 382 556 l 1
 378 556 l 1
 356 556 l 1
 351 556 l 1
 332 556 l 1
 332 416 l 1
 332 416 l 1xaa
 332 296 l 1
 351 318 l 1
 356 323 l 1
 378 344 l 1
 378 344 l 1
 382 349 l 1
 384 351 l 1
 404 368 l 1
 408 375 l 1
 428 395 l 1
 434 401 l 1
 454 421 l 1
EndSplineSet
EndChar
StartChar: nine
Encoding: 57 57 62
Width: 474
Flags: MW
HStem: 0 146<100 311 100 311> 135 157<167 311 167 311 110 311 167 429 167 444> 281 146<161 311 17 161> 416 149<28 311 43 311 43 311 161 311> 554 146<17 311 150 311 161 311 161 311 161 322 161 342 161 348 161 368 161 372 161 394 161 398 161 420 161 424 161 444 161 455>
VStem: 17 144<427 554> 150 172<427 554> 311 144<135 554 146 281 281 281 292 416 416 416 427 554 146 554 146 565>
LayerCount: 2
Back
Fore
SplineSet
444 565 m 1x95
 455 554 l 1
 455 146 l 1xad
 444 135 l 1x55
 311 0 l 1
 100 0 l 1
 100 146 l 1
 311 146 l 1
 311 281 l 1
 161 281 l 1xad
 28 416 l 1x95
 17 427 l 1
 17 554 l 1xad
 150 689 l 1xaa
 161 700 l 1
 311 700 l 1xad
 444 565 l 1x95
161 586 m 1
 161 565 l 1
 311 565 l 1
 429 565 l 1
 409 586 l 1
 405 591 l 1
 383 613 l 1
 379 617 l 1
 357 637 l 1
 352 643 l 1
 333 663 l 1
 326 669 l 1
 307 689 l 1
 161 689 l 1
 161 669 l 1
 161 663 l 1
 161 643 l 1
 161 637 l 1
 161 617 l 1
 161 613 l 1
 161 591 l 1
 161 586 l 1
311 554 m 1xad
 161 554 l 1
 161 427 l 1
 311 427 l 1
 311 554 l 1xad
28 549 m 1
 28 427 l 1
 47 427 l 1
 54 427 l 1
 73 427 l 1
 78 427 l 1
 100 427 l 1
 104 427 l 1
 126 427 l 1
 130 427 l 1
 150 427 l 1
 150 554 l 1
 150 674 l 1xaa
 130 654 l 1
 126 647 l 1
 104 628 l 1
 100 621 l 1
 78 602 l 1
 73 595 l 1
 54 576 l 1
 47 571 l 1
 28 549 l 1
167 292 m 1x55
 311 292 l 1
 311 416 l 1
 161 416 l 1
 43 416 l 1
 167 292 l 1x55
307 11 m 1
 429 135 l 1
 311 135 l 1
 110 135 l 1
 110 11 l 1
 307 11 l 1
424 146 m 1xaa
 444 146 l 1
 444 554 l 1
 424 554 l 1
 420 554 l 1
 398 554 l 1
 394 554 l 1
 372 554 l 1
 368 554 l 1
 348 554 l 1
 342 554 l 1
 322 554 l 1
 322 427 l 1
 322 281 l 1
 322 146 l 1
 342 146 l 1
 348 146 l 1
 368 146 l 1
 372 146 l 1
 394 146 l 1
 398 146 l 1
 420 146 l 1
 424 146 l 1xaa
EndSplineSet
EndChar
StartChar: less
Encoding: 60 60 68
Width: 332
Flags: MW
HStem: 51 21G<218 218> 655 20G<217 217>
LayerCount: 2
Back
Fore
SplineSet
114 364 m 1
 324 155 l 1
 218 51 l 1
 11 259 l 1
 11 468 l 1
 217 675 l 1
 321 571 l 1
 114 364 l 1
217 659 m 1
 19 462 l 1
 19 284 l 1
 306 571 l 1
 217 659 l 1
288 137 m 1
 292 141 l 1
 308 155 l 1
 107 355 l 1
 18 268 l 1
 218 66 l 1
 233 81 l 1
 238 85 l 1
 251 100 l 1
 255 104 l 1
 271 118 l 1
 275 122 l 1
 288 137 l 1
EndSplineSet
EndChar
StartChar: greater
Encoding: 62 62 69
Width: 357
Flags: MW
HStem: 36 21G<127 127> 655 20G<128 128>
LayerCount: 2
Back
Fore
SplineSet
128 675 m 1
 339 463 l 1
 339 248 l 1
 127 36 l 1
 19 143 l 1
 232 356 l 1
 20 567 l 1
 128 675 l 1
128 658 m 1
 37 567 l 1
 330 274 l 1
 330 456 l 1
 128 658 l 1
127 52 m 1
 331 257 l 1
 240 348 l 1
 36 143 l 1
 50 128 l 1
 54 123 l 1
 70 109 l 1
 73 104 l 1
 88 89 l 1
 93 85 l 1
 107 70 l 1
 112 66 l 1
 127 52 l 1
EndSplineSet
EndChar
StartChar: question
Encoding: 63 63 67
Width: 509
Flags: MW
HStem: 0 145<180 325 180 325> 135 71<190 313 190 313> 408 157<313 313 313 313 325 325 325 349> 423 142<40 159 40 159 14 159> 555 145<24 349 24 349 45 349 51 349 70 349 76 349 96 349 102 349 123 349 127 349 159 349 159 349 159 360>
VStem: 14 145<423 555 423 555> 148 212<435 555 418 555> 180 145<0 145 0 145 194 273 0 273> 349 145<408 555 418 555 418 555 418 586 418 592 418 612 418 617 418 637 418 643 418 664 418 669 418 688 418 688>
LayerCount: 2
Back
Fore
SplineSet
180 0 m 1xa580
 180 145 l 1
 325 145 l 1
 325 0 l 1
 180 0 l 1xa580
190 135 m 1x4a
 190 12 l 1
 313 12 l 1
 313 135 l 1
 190 135 l 1x4a
360 688 m 1
 494 555 l 1x8d80
 494 418 l 1
 349 273 l 1
 325 273 l 1
 325 194 l 1
 180 194 l 1
 180 273 l 1
 313 408 l 1
 313 408 l 1xa580
 325 418 l 1
 349 418 l 1
 349 555 l 1
 159 555 l 1x8d80
 159 423 l 1
 14 423 l 1x9580
 14 555 l 1
 159 700 l 1
 349 700 l 1x8d80
 360 688 l 1
 360 688 l 1
148 435 m 1
 148 555 l 1
 127 555 l 1
 123 555 l 1
 102 555 l 1
 96 555 l 1
 76 555 l 1
 70 555 l 1
 51 555 l 1
 45 555 l 1
 24 555 l 1
 24 435 l 1
 45 435 l 1
 51 435 l 1
 70 435 l 1
 76 435 l 1
 96 435 l 1
 102 435 l 1
 123 435 l 1
 127 435 l 1
 148 435 l 1
159 565 m 1x6580
 349 565 l 1
 349 586 l 1
 349 592 l 1
 349 612 l 1
 349 617 l 1
 349 637 l 1
 349 643 l 1
 349 664 l 1
 349 669 l 1
 349 688 l 1
 164 688 l 1
 143 669 l 1
 137 664 l 1
 117 643 l 1
 112 637 l 1
 92 617 l 1
 86 612 l 1
 65 592 l 1
 59 586 l 1
 40 565 l 1
 159 565 l 1x6580
313 206 m 1
 313 273 l 1
 313 392 l 1
 190 269 l 1
 190 206 l 1
 313 206 l 1
447 388 m 1
 468 408 l 1
 349 408 l 1
 325 408 l 1
 325 388 l 1
 325 382 l 1
 325 361 l 1
 325 357 l 1
 325 336 l 1
 325 330 l 1
 325 310 l 1
 325 304 l 1
 325 285 l 1
 344 285 l 1
 365 304 l 1
 371 310 l 1
 390 330 l 1
 396 336 l 1
 416 357 l 1
 422 361 l 1
 443 382 l 1
 447 388 l 1
463 418 m 1
 484 418 l 1
 484 550 l 1
 463 571 l 1
 457 575 l 1
 437 596 l 1
 432 602 l 1
 412 622 l 1
 406 628 l 1
 385 647 l 1
 379 653 l 1
 360 674 l 1
 360 555 l 1
 360 418 l 1x8a
 379 418 l 1
 385 418 l 1
 406 418 l 1
 412 418 l 1
 432 418 l 1
 437 418 l 1
 457 418 l 1
 463 418 l 1
EndSplineSet
EndChar
StartChar: A
Encoding: 65 65 64
Width: 643
Flags: MW
HStem: 0 21G<499 499> 682 20G<257 409 409 409>
LayerCount: 2
Back
Fore
SplineSet
617 92 m 1
 499 0 l 1
 227 175 l 1
 167 2 l 1
 32 51 l 1
 257 702 l 1
 409 702 l 1
 617 92 l 1
602 103 m 1
 403 687 l 1
 381 687 l 1
 375 687 l 1
 353 687 l 1
 349 687 l 1
 328 687 l 1
 321 687 l 1
 300 687 l 1
 293 687 l 1
 274 687 l 1
 437 210 l 1
 602 103 l 1
422 220 m 1
 332 481 l 1
 274 315 l 1
 422 220 l 1
263 685 m 1
 122 276 l 1
 186 374 l 1
 266 321 l 1
 326 499 l 1
 263 685 l 1
161 15 m 1
 219 182 l 1
 114 250 l 1
 47 58 l 1
 64 49 l 1
 71 49 l 1
 88 41 l 1
 94 41 l 1
 114 32 l 1
 118 32 l 1
 137 24 l 1
 141 24 l 1
 161 15 l 1
122 257 m 1
 495 15 l 1
 576 79 l 1
 576 79 l 1
 595 94 l 1
 272 304 l 1
 272 304 l 1
 266 308 l 1
 189 360 l 1
 122 257 l 1
EndSplineSet
EndChar
StartChar: B
Encoding: 66 66 1
Width: 557
Flags: MW
HStem: 0 146<66 190 201 379 55 55> 135 148<201 375 201 390 201 496 66 375 201 512 201 512> 272 146<190 190 190 201 201 379> 407 159<55 201 201 379> 555 146<55 379 66 66 66 190 201 201 201 379 55 390 55 523>
VStem: 55 146<0 146 146 272 283 302 302 309 309 329 329 335 335 355 355 359 359 381 381 385 385 407 418 555 146 146> 190 200<146 272 272 283 283 298 298 390 146 407 146 418 418 555> 379 144<146 272 146 272 146 407 146 407 418 555>
LayerCount: 2
Back
Fore
SplineSet
523 555 m 1xad
 523 418 l 1
 523 418 l 1
 523 418 l 1
 451 344 l 1
 523 272 l 1
 523 146 l 1xad
 512 135 l 1
 512 135 l 1x55
 379 0 l 1
 55 0 l 1
 55 146 l 1
 55 146 l 1
 55 555 l 1xad
 55 566 l 1x95
 55 701 l 1
 379 701 l 1
 523 555 l 1xad
416 648 m 1
 409 655 l 1
 390 675 l 1
 390 555 l 1
 390 418 l 1xaa
 409 418 l 1
 416 418 l 1
 436 418 l 1
 440 418 l 1
 462 418 l 1
 466 418 l 1
 486 418 l 1
 492 418 l 1
 512 418 l 1
 512 551 l 1
 492 572 l 1
 486 577 l 1
 466 596 l 1
 462 603 l 1
 440 622 l 1
 436 629 l 1
 416 648 l 1
66 588 m 1
 66 566 l 1
 201 566 l 1
 379 566 l 1
 379 588 l 1
 379 592 l 1
 379 611 l 1
 379 618 l 1
 379 638 l 1
 379 644 l 1
 379 664 l 1
 379 670 l 1
 379 690 l 1x95
 66 690 l 1
 66 670 l 1
 66 664 l 1
 66 644 l 1
 66 638 l 1
 66 618 l 1
 66 611 l 1
 66 592 l 1
 66 588 l 1
190 555 m 1xaa
 66 555 l 1
 66 146 l 1
 190 146 l 1
 190 272 l 1
 190 418 l 1
 190 555 l 1xaa
201 407 m 1x55
 201 385 l 1
 201 381 l 1
 201 359 l 1
 201 355 l 1
 201 335 l 1
 201 329 l 1
 201 309 l 1
 201 302 l 1
 201 283 l 1
 375 283 l 1
 379 287 l 1
 379 407 l 1
 201 407 l 1x55
375 11 m 1
 496 135 l 1
 66 135 l 1
 66 11 l 1
 375 11 l 1
201 146 m 1xad
 379 146 l 1
 379 272 l 1
 201 272 l 1
 201 146 l 1xad
512 146 m 1
 512 268 l 1
 390 390 l 1
 390 298 l 1
 390 298 l 1
 390 283 l 1
 390 283 l 1x52
 390 146 l 1xaa
 512 146 l 1
477 385 m 1
 496 407 l 1
 390 407 l 1
 442 353 l 1
 446 355 l 1
 451 359 l 1
 470 381 l 1
 477 385 l 1
201 418 m 1xad
 379 418 l 1
 379 555 l 1
 201 555 l 1
 201 418 l 1xad
EndSplineSet
EndChar
StartChar: C
Encoding: 67 67 2
Width: 509
Flags: MW
HStem: 0 146<177 495 32 177> 555 146<32 495 166 495 177 495 177 495>
VStem: 32 145<146 555>
LayerCount: 2
Back
Fore
SplineSet
495 555 m 1
 177 555 l 1
 177 146 l 1
 495 146 l 1
 495 0 l 1
 177 0 l 1
 32 146 l 1
 32 555 l 1
 177 701 l 1
 495 701 l 1
 495 555 l 1
484 690 m 1
 177 690 l 1
 177 670 l 1
 177 664 l 1
 177 644 l 1
 177 638 l 1
 177 618 l 1
 177 614 l 1
 177 592 l 1
 177 588 l 1
 177 566 l 1
 484 566 l 1
 484 588 l 1
 484 592 l 1
 484 614 l 1
 484 618 l 1
 484 638 l 1
 484 644 l 1
 484 664 l 1
 484 670 l 1
 484 690 l 1
484 135 m 1
 177 135 l 1
 58 135 l 1
 182 11 l 1
 484 11 l 1
 484 135 l 1
166 146 m 1
 166 555 l 1
 166 675 l 1
 145 655 l 1
 140 648 l 1
 119 629 l 1
 114 622 l 1
 95 603 l 1
 88 596 l 1
 69 577 l 1
 62 572 l 1
 42 551 l 1
 42 146 l 1
 62 146 l 1
 69 146 l 1
 88 146 l 1
 95 146 l 1
 114 146 l 1
 119 146 l 1
 140 146 l 1
 145 146 l 1
 166 146 l 1
EndSplineSet
EndChar
StartChar: D
Encoding: 68 68 3
Width: 532
Flags: MW
HStem: 0 146<48 170 181 360 38 38> 555 146<38 360 48 48 48 170 181 360 181 181 38 371 38 505>
VStem: 38 143<0 555 146 555 146 555 146 566 146 701> 170 201<146 555 146 555> 360 145<146 555 146 555 146 588 146 592 146 611 146 618 146 638 146 644 146 664 146 670 146 690 146 690>
LayerCount: 2
Back
Fore
SplineSet
360 701 m 1xe8
 505 555 l 1
 505 146 l 1
 495 135 l 1
 495 135 l 1
 360 0 l 1
 38 0 l 1
 38 146 l 1
 38 146 l 1
 38 555 l 1
 38 566 l 1
 38 701 l 1
 360 701 l 1xe8
397 648 m 1
 392 655 l 1
 371 675 l 1
 371 555 l 1
 371 146 l 1xd0
 392 146 l 1
 397 146 l 1
 416 146 l 1
 423 146 l 1
 442 146 l 1
 449 146 l 1
 468 146 l 1
 475 146 l 1
 495 146 l 1
 495 551 l 1
 475 572 l 1
 468 577 l 1
 449 596 l 1
 442 603 l 1
 423 622 l 1
 416 629 l 1
 397 648 l 1
48 588 m 1
 48 566 l 1
 181 566 l 1
 360 566 l 1
 360 588 l 1
 360 592 l 1
 360 611 l 1
 360 618 l 1
 360 638 l 1
 360 644 l 1
 360 664 l 1
 360 670 l 1
 360 690 l 1xe8
 48 690 l 1
 48 670 l 1
 48 664 l 1
 48 644 l 1
 48 638 l 1
 48 618 l 1
 48 611 l 1
 48 592 l 1
 48 588 l 1
170 555 m 1xd0
 48 555 l 1
 48 146 l 1
 170 146 l 1
 170 555 l 1xd0
181 555 m 1xe8
 181 146 l 1
 360 146 l 1
 360 555 l 1
 181 555 l 1xe8
355 11 m 1
 479 135 l 1
 48 135 l 1
 48 11 l 1
 355 11 l 1
EndSplineSet
EndChar
StartChar: E
Encoding: 69 69 4
Width: 535
Flags: MW
HStem: 0 149<66 192 203 504 54 54> 138 136<66 192 66 66 66 66 192 203 203 493> 262 149<54 54 54 54 54 66 66 192 203 504> 400 163<66 481 66 481 66 481 192 481 203 481 203 493> 552 149<192 493 203 493 203 493>
VStem: 54 149<11 11 11 138 11 149 149 262 11 149 411 552> 481 23
LayerCount: 2
Back
Fore
SplineSet
504 262 m 1xae
 203 262 l 1
 203 149 l 1
 504 149 l 1
 504 0 l 1
 54 0 l 1
 54 149 l 1
 54 149 l 1
 54 262 l 1
 54 262 l 1
 54 411 l 1
 54 411 l 1
 54 552 l 1
 203 701 l 1
 493 701 l 1
 493 552 l 1
 203 552 l 1
 203 411 l 1
 504 411 l 1
 504 262 l 1xae
493 400 m 1x56
 203 400 l 1
 192 400 l 1
 66 400 l 1
 66 400 l 1
 66 274 l 1
 66 274 l 1
 192 274 l 1
 203 274 l 1
 493 274 l 1
 493 400 l 1x56
481 689 m 1
 203 689 l 1
 203 669 l 1
 203 663 l 1
 203 643 l 1
 203 636 l 1
 203 616 l 1
 203 612 l 1
 203 589 l 1
 203 585 l 1
 203 563 l 1
 481 563 l 1
 481 585 l 1
 481 589 l 1
 481 612 l 1
 481 616 l 1
 481 636 l 1
 481 643 l 1
 481 663 l 1
 481 669 l 1
 481 689 l 1
66 547 m 1
 66 411 l 1
 192 411 l 1
 192 552 l 1xae
 192 674 l 1
 170 654 l 1
 166 647 l 1
 143 627 l 1
 139 620 l 1
 119 600 l 1
 112 594 l 1
 92 574 l 1
 86 569 l 1
 66 547 l 1
493 138 m 1x56
 203 138 l 1
 192 138 l 1
 66 138 l 1
 66 138 l 1
 66 11 l 1
 203 11 l 1
 493 11 l 1
 493 138 l 1x56
192 149 m 1xae
 192 262 l 1
 66 262 l 1
 66 149 l 1
 192 149 l 1xae
EndSplineSet
EndChar
StartChar: F
Encoding: 70 70 5
Width: 460
Flags: MW
HStem: 0 21G<29 175 29 29> 272 146<29 29 29 29 29 40 40 164 175 440> 407 159<40 419 40 419 40 419 164 419 175 419 175 429> 555 146<164 429 175 429 175 429>
VStem: 29 146<0 272 0 283 0 407 0 418 0 272 418 555>
LayerCount: 2
Back
Fore
SplineSet
440 418 m 1xd8
 440 272 l 1
 175 272 l 1
 175 0 l 1
 29 0 l 1
 29 272 l 1
 29 272 l 1
 29 418 l 1
 29 418 l 1
 29 555 l 1
 175 701 l 1
 429 701 l 1
 429 555 l 1
 175 555 l 1
 175 418 l 1
 440 418 l 1xd8
419 690 m 1
 175 690 l 1
 175 670 l 1
 175 664 l 1
 175 644 l 1
 175 638 l 1
 175 618 l 1
 175 614 l 1
 175 592 l 1
 175 588 l 1
 175 566 l 1
 419 566 l 1xa8
 419 588 l 1
 419 592 l 1
 419 614 l 1
 419 618 l 1
 419 638 l 1
 419 644 l 1
 419 664 l 1
 419 670 l 1
 419 690 l 1
40 551 m 1
 40 418 l 1
 164 418 l 1
 164 555 l 1xd8
 164 675 l 1
 144 655 l 1
 138 648 l 1
 118 629 l 1
 112 622 l 1
 92 603 l 1
 86 596 l 1
 66 577 l 1
 62 572 l 1
 40 551 l 1
164 11 m 1
 164 272 l 1
 40 272 l 1
 40 11 l 1
 62 11 l 1
 66 11 l 1
 86 11 l 1
 92 11 l 1
 112 11 l 1
 118 11 l 1
 138 11 l 1
 144 11 l 1
 164 11 l 1
429 283 m 1
 429 407 l 1
 175 407 l 1
 164 407 l 1
 40 407 l 1
 40 407 l 1xa8
 40 283 l 1
 40 283 l 1
 164 283 l 1
 175 283 l 1
 429 283 l 1
EndSplineSet
EndChar
StartChar: G
Encoding: 71 71 6
Width: 539
Flags: MW
HStem: 0 146<177 369 34 177> 135 148<60 369 262 369 262 369> 272 146<251 369 251 369 251 380 251 399 251 404 251 425 251 430 251 451 251 456 251 475 251 482 251 501 251 512> 407 159<262 364 262 262> 555 146<34 493 166 493 177 493 177 493>
VStem: 34 143<146 555> 166 96<283 283 283 407> 166 214<146 272 26 555> 369 143<11 272 30 272 37 272 57 272 63 272 83 272 87 272 109 272 113 272 135 272 146 272 146 272 146 283>
LayerCount: 2
Back
Fore
SplineSet
369 418 m 1xac80
 512 272 l 1
 512 146 l 1
 369 0 l 1
 177 0 l 1
 34 146 l 1
 34 555 l 1
 177 701 l 1
 493 701 l 1
 493 555 l 1
 177 555 l 1
 177 146 l 1
 369 146 l 1
 369 272 l 1
 251 272 l 1
 251 418 l 1
 369 418 l 1xac80
262 283 m 1x5280
 369 283 l 1
 486 283 l 1
 364 407 l 1
 262 407 l 1
 262 283 l 1x5280
482 690 m 1
 177 690 l 1
 177 670 l 1
 177 664 l 1
 177 644 l 1
 177 638 l 1
 177 618 l 1
 177 614 l 1
 177 592 l 1
 177 588 l 1
 177 566 l 1x9480
 482 566 l 1
 482 588 l 1
 482 592 l 1
 482 614 l 1
 482 618 l 1
 482 638 l 1
 482 644 l 1
 482 664 l 1
 482 670 l 1
 482 690 l 1
44 551 m 1
 44 146 l 1
 64 146 l 1
 68 146 l 1
 90 146 l 1
 95 146 l 1
 116 146 l 1
 121 146 l 1
 140 146 l 1
 147 146 l 1
 166 146 l 1
 166 555 l 1
 166 675 l 1xaa80
 147 655 l 1
 140 648 l 1
 121 629 l 1
 116 622 l 1
 95 603 l 1
 90 596 l 1
 68 577 l 1
 64 572 l 1
 44 551 l 1
182 11 m 1
 369 11 l 1
 369 30 l 1
 369 37 l 1
 369 57 l 1
 369 63 l 1
 369 83 l 1
 369 87 l 1
 369 109 l 1
 369 113 l 1
 369 135 l 1
 177 135 l 1
 60 135 l 1x5480
 79 113 l 1
 84 109 l 1
 105 87 l 1
 110 83 l 1
 132 63 l 1
 136 57 l 1
 155 37 l 1
 162 30 l 1
 182 11 l 1
501 150 m 1
 501 272 l 1
 482 272 l 1
 475 272 l 1
 456 272 l 1
 451 272 l 1
 430 272 l 1
 425 272 l 1
 404 272 l 1
 399 272 l 1
 380 272 l 1
 380 146 l 1
 380 26 l 1xa9
 399 46 l 1
 404 52 l 1
 425 72 l 1
 430 78 l 1
 451 98 l 1
 456 104 l 1
 475 124 l 1
 482 128 l 1
 501 150 l 1
EndSplineSet
EndChar
StartChar: H
Encoding: 72 72 7
Width: 547
Flags: MW
HStem: 0 21G<36 179 36 36 363 509 363 363> 272 147<46 363 46 363 179 363 179 363 179 373> 682 20G<36 179 179 179 363 509 509 509>
VStem: 36 143<0 272 0 283 419 702> 169 204<11 272 11 272 283 283 408 419 419 691> 363 146<0 272 272 272 283 408 408 408 419 702 0 702>
LayerCount: 2
Back
Fore
SplineSet
363 702 m 1xf4
 509 702 l 1
 509 0 l 1
 363 0 l 1
 363 272 l 1
 179 272 l 1
 179 0 l 1
 36 0 l 1
 36 702 l 1
 179 702 l 1
 179 419 l 1
 363 419 l 1
 363 702 l 1xf4
46 691 m 1
 46 283 l 1
 169 408 l 1
 169 691 l 1xe8
 149 691 l 1
 145 691 l 1
 123 691 l 1
 118 691 l 1
 97 691 l 1
 92 691 l 1
 73 691 l 1
 66 691 l 1
 46 691 l 1
169 11 m 1
 169 272 l 1
 46 272 l 1
 46 11 l 1
 66 11 l 1
 73 11 l 1
 92 11 l 1
 97 11 l 1
 118 11 l 1
 123 11 l 1
 145 11 l 1
 149 11 l 1
 169 11 l 1
179 283 m 1xf4
 363 283 l 1
 363 408 l 1xf4
 184 408 l 1
 62 283 l 1
 169 283 l 1xe8
 179 283 l 1xf4
498 11 m 1
 498 691 l 1
 373 691 l 1
 373 419 l 1
 373 272 l 1
 373 11 l 1xe8
 498 11 l 1
EndSplineSet
EndChar
StartChar: I
Encoding: 73 73 8
Width: 380
Flags: MW
HStem: 0 146<33 127 138 262 273 344 33 127> 555 146<33 127 33 344 142 142 262 262 273 344 273 273>
VStem: 33 240<135 135 135 146 135 146 566 690> 127 146<135 135 146 555> 262 82<0 555 555 566 566 675 675 675 690 690>
LayerCount: 2
Back
Fore
SplineSet
344 555 m 1xc8
 273 555 l 1
 273 146 l 1xe0
 344 146 l 1
 344 0 l 1xc8
 33 0 l 1
 33 146 l 1xe0
 127 146 l 1
 127 555 l 1xd0
 33 555 l 1
 33 701 l 1xe0
 344 701 l 1
 344 555 l 1xc8
334 690 m 1
 273 690 l 1
 273 566 l 1xe0
 334 566 l 1
 334 588 l 1
 334 592 l 1
 334 611 l 1
 334 618 l 1
 334 638 l 1
 334 644 l 1
 334 664 l 1
 334 670 l 1
 334 690 l 1
44 588 m 1
 44 566 l 1
 138 566 l 1
 262 690 l 1xc8
 44 690 l 1
 44 670 l 1
 44 664 l 1
 44 644 l 1
 44 638 l 1
 44 618 l 1
 44 611 l 1
 44 592 l 1
 44 588 l 1
334 135 m 1
 273 135 l 1
 127 135 l 1xd0
 44 135 l 1
 44 11 l 1
 334 11 l 1
 334 135 l 1
262 146 m 1xc8
 262 555 l 1
 262 566 l 1
 262 675 l 1
 153 566 l 1
 142 555 l 1
 138 551 l 1
 138 146 l 1
 262 146 l 1xc8
EndSplineSet
EndChar
StartChar: J
Encoding: 74 74 9
Width: 494
Flags: MW
HStem: 0 146<154 255> 556 146<163 255 163 473 270 270 390 390 401 473 401 401>
VStem: 8 146<146 275> 143 123<28 552 146 264 264 264> 163 238<146 567 567 691 146 702 146 702> 255 146<135 556 146 556 146 556> 390 83<146 702 556 567 567 676 676 676 691 691>
LayerCount: 2
Back
Fore
SplineSet
473 702 m 1xe2
 473 556 l 1xd2
 401 556 l 1
 401 146 l 1xe8
 390 135 l 1xe2
 255 0 l 1
 154 0 l 1
 8 146 l 1
 8 275 l 1
 154 275 l 1
 154 146 l 1
 255 146 l 1
 255 556 l 1xe4
 163 556 l 1
 163 702 l 1xe8
 473 702 l 1xe2
174 589 m 1
 174 567 l 1
 266 567 l 1
 390 691 l 1
 174 691 l 1
 174 671 l 1
 174 665 l 1
 174 645 l 1
 174 639 l 1
 174 619 l 1
 174 615 l 1
 174 593 l 1
 174 589 l 1
19 264 m 1
 19 150 l 1
 143 28 l 1
 143 146 l 1
 143 264 l 1
 19 264 l 1
353 116 m 1
 375 135 l 1
 255 135 l 1
 154 135 l 1
 154 116 l 1
 154 109 l 1
 154 89 l 1
 154 83 l 1
 154 63 l 1
 154 59 l 1
 154 37 l 1
 154 33 l 1
 154 11 l 1xe4
 250 11 l 1
 270 33 l 1
 276 37 l 1
 296 59 l 1
 303 63 l 1
 322 83 l 1
 329 89 l 1
 348 109 l 1
 353 116 l 1
390 146 m 1xd2
 390 556 l 1
 390 567 l 1
 390 676 l 1
 370 656 l 1
 364 650 l 1
 344 630 l 1
 337 623 l 1
 318 604 l 1
 311 597 l 1
 292 578 l 1
 287 573 l 1
 281 567 l 1
 270 556 l 1
 266 552 l 1
 266 146 l 1
 287 146 l 1
 292 146 l 1
 311 146 l 1
 318 146 l 1
 337 146 l 1
 344 146 l 1
 364 146 l 1
 370 146 l 1
 390 146 l 1xd2
462 671 m 1
 462 691 l 1
 401 691 l 1
 401 567 l 1xe8
 462 567 l 1
 462 589 l 1
 462 593 l 1
 462 615 l 1
 462 619 l 1
 462 639 l 1
 462 645 l 1
 462 665 l 1
 462 671 l 1
EndSplineSet
EndChar
StartChar: K
Encoding: 75 75 10
Width: 526
Flags: MW
HStem: -20 20G<31 176 31 31> -2 21G<430 430> 682 20G<31 176 176 176 430 430>
VStem: 31 64<265 420 265 702> 31 145<0 190 512 702>
LayerCount: 2
Back
Fore
SplineSet
517 586 m 1xa8
 204 350 l 1
 517 116 l 1
 430 -2 l 1x68
 176 190 l 1
 176 0 l 1
 31 0 l 1
 31 702 l 1
 176 702 l 1
 176 512 l 1
 430 702 l 1
 517 586 l 1xa8
427 687 m 1
 176 499 l 1
 176 499 l 1
 165 490 l 1
 165 490 l 1
 99 440 l 1
 112 424 l 1
 115 420 l 1
 115 418 l 1
 195 359 l 1
 502 589 l 1
 491 604 l 1
 486 608 l 1
 473 626 l 1
 471 630 l 1
 458 645 l 1
 456 650 l 1
 443 667 l 1
 441 672 l 1
 427 687 l 1
165 11 m 1
 165 199 l 1
 84 260 l 1
 84 442 l 1
 165 503 l 1
 165 691 l 1
 145 691 l 1
 141 691 l 1
 119 691 l 1
 115 691 l 1
 93 691 l 1
 88 691 l 1
 69 691 l 1
 62 691 l 1
 42 691 l 1
 42 11 l 1
 62 11 l 1
 69 11 l 1
 88 11 l 1
 93 11 l 1
 115 11 l 1
 119 11 l 1
 141 11 l 1
 145 11 l 1
 165 11 l 1
427 13 m 1
 502 114 l 1
 193 346 l 1
 187 350 l 1
 187 350 l 1
 141 387 l 1
 141 387 l 1
 123 398 l 1
 95 420 l 1
 95 265 l 1xb0
 427 13 l 1
EndSplineSet
EndChar
StartChar: L
Encoding: 76 76 11
Width: 451
Flags: MW
HStem: 0 146<176 443 33 176> 679 20G<33 176 176 176>
VStem: 33 143<146 699>
LayerCount: 2
Back
Fore
SplineSet
176 146 m 1
 443 146 l 1
 443 0 l 1
 176 0 l 1
 44 135 l 1
 33 146 l 1
 33 699 l 1
 176 699 l 1
 176 146 l 1
44 689 m 1
 44 146 l 1
 63 146 l 1
 70 146 l 1
 89 146 l 1
 94 146 l 1
 115 146 l 1
 120 146 l 1
 141 146 l 1
 146 146 l 1
 165 146 l 1
 165 689 l 1
 146 689 l 1
 141 689 l 1
 120 689 l 1
 115 689 l 1
 94 689 l 1
 89 689 l 1
 70 689 l 1
 63 689 l 1
 44 689 l 1
432 11 m 1
 432 135 l 1
 176 135 l 1
 59 135 l 1
 180 11 l 1
 432 11 l 1
EndSplineSet
EndChar
StartChar: M
Encoding: 77 77 12
Width: 802
Flags: MW
HStem: 0 21G<36 181 36 36 622 767 622 622> 679 20G
VStem: 36 145<0 333 0 669> 622 145<0 333 333 333 361 669 0 673 0 673 0 699 0 699 0 699>
LayerCount: 2
Back
Fore
SplineSet
767 669 m 1
 767 669 l 1
 767 669 l 1
 767 0 l 1
 622 0 l 1
 622 333 l 1
 480 2 l 1
 324 2 l 1
 181 333 l 1
 181 0 l 1
 36 0 l 1
 36 669 l 1
 36 669 l 1
 36 669 l 1
 181 699 l 1
 402 186 l 1
 622 699 l 1
 622 699 l 1
 622 699 l 1
 700 682 l 1
 767 669 l 1
170 11 m 1
 170 359 l 1
 47 643 l 1
 47 11 l 1
 68 11 l 1
 73 11 l 1
 92 11 l 1
 99 11 l 1
 118 11 l 1
 125 11 l 1
 144 11 l 1
 151 11 l 1
 170 11 l 1
328 17 m 1
 328 17 l 1
 395 173 l 1
 175 686 l 1
 155 682 l 1
 151 679 l 1
 129 675 l 1
 125 675 l 1
 103 671 l 1
 99 669 l 1
 99 669 l 1
 99 669 l 1
 81 664 l 1
 79 664 l 1
 73 664 l 1
 53 660 l 1
 328 17 l 1
475 17 m 1
 622 361 l 1
 622 673 l 1
 404 164 l 1
 402 158 l 1
 402 158 l 1
 341 17 l 1
 356 17 l 1
 363 17 l 1
 369 17 l 1
 391 17 l 1
 397 17 l 1
 419 17 l 1
 426 17 l 1
 447 17 l 1
 452 17 l 1
 475 17 l 1
757 11 m 1
 757 643 l 1
 757 658 l 1
 750 660 l 1
 750 660 l 1
 731 664 l 1
 731 664 l 1
 729 664 l 1
 705 669 l 1
 705 669 l 1
 700 671 l 1
 700 671 l 1
 679 675 l 1
 679 675 l 1
 674 675 l 1
 674 675 l 1
 653 679 l 1
 653 679 l 1
 648 682 l 1
 648 682 l 1
 633 684 l 1
 633 684 l 1
 633 11 l 1
 757 11 l 1
EndSplineSet
EndChar
StartChar: N
Encoding: 78 78 13
Width: 608
Flags: MW
HStem: 0 21G<32 176 32 32 430 430> 681 20G
VStem: 32 144<0 422 0 662> 430 146<0 701 41 261 261 261 281 701 41 701>
LayerCount: 2
Back
Fore
SplineSet
430 701 m 1
 576 701 l 1
 576 41 l 1
 430 0 l 1
 176 422 l 1
 176 0 l 1
 32 0 l 1
 32 662 l 1
 32 662 l 1
 32 662 l 1
 178 701 l 1
 430 281 l 1
 430 701 l 1
165 11 m 1
 165 440 l 1
 43 642 l 1
 43 11 l 1
 63 11 l 1
 69 11 l 1
 89 11 l 1
 93 11 l 1
 115 11 l 1
 119 11 l 1
 141 11 l 1
 145 11 l 1
 165 11 l 1
52 651 m 1
 430 22 l 1
 430 261 l 1
 171 690 l 1
 152 683 l 1
 145 681 l 1
 126 677 l 1
 119 675 l 1
 99 668 l 1
 95 668 l 1
 73 662 l 1
 73 662 l 1
 73 662 l 1
 71 659 l 1
 69 659 l 1
 49 655 l 1
 52 651 l 1
 52 651 l 1
441 15 m 1
 565 50 l 1
 565 690 l 1
 441 690 l 1
 441 263 l 1
 441 242 l 1
 441 20 l 1
 441 15 l 1
EndSplineSet
EndChar
StartChar: O
Encoding: 79 79 14
Width: 559
Flags: MW
HStem: 0 146<173 389> 556 146<173 173 173 389>
VStem: 27 146<146 556> 162 238<146 556> 389 146<11 556 33 556 37 556 59 556 63 556 83 556 89 556 109 556 116 556 135 556 146 556 146 556 146 567>
LayerCount: 2
Back
Fore
SplineSet
389 702 m 1xe8
 535 556 l 1
 535 146 l 1
 389 0 l 1
 173 0 l 1
 38 135 l 1
 38 135 l 1
 27 146 l 1
 27 556 l 1
 173 702 l 1
 173 702 l 1
 173 702 l 1
 389 702 l 1xe8
173 589 m 1
 173 567 l 1
 389 567 l 1
 509 567 l 1
 487 589 l 1
 483 593 l 1
 463 613 l 1
 457 619 l 1
 437 639 l 1
 430 645 l 1
 411 665 l 1
 404 669 l 1
 385 691 l 1
 173 691 l 1
 173 669 l 1
 173 665 l 1
 173 645 l 1
 173 639 l 1
 173 619 l 1
 173 613 l 1
 173 593 l 1
 173 589 l 1
389 556 m 1
 173 556 l 1
 173 146 l 1
 389 146 l 1
 389 556 l 1
38 552 m 1
 38 146 l 1
 58 146 l 1
 64 146 l 1
 84 146 l 1
 90 146 l 1
 110 146 l 1
 117 146 l 1
 136 146 l 1
 141 146 l 1
 162 146 l 1
 162 676 l 1xd0
 141 656 l 1
 136 650 l 1
 117 630 l 1
 110 623 l 1
 90 604 l 1
 84 597 l 1
 64 578 l 1
 58 573 l 1
 38 552 l 1
178 11 m 1
 389 11 l 1
 389 33 l 1
 389 37 l 1
 389 59 l 1
 389 63 l 1
 389 83 l 1
 389 89 l 1
 389 109 l 1
 389 116 l 1
 389 135 l 1
 173 135 l 1xe8
 53 135 l 1
 73 116 l 1
 79 109 l 1
 99 89 l 1
 106 83 l 1
 125 63 l 1
 132 59 l 1
 151 37 l 1
 156 33 l 1
 178 11 l 1
524 150 m 1
 524 556 l 1
 502 556 l 1
 498 556 l 1
 478 556 l 1
 472 556 l 1
 452 556 l 1
 446 556 l 1
 426 556 l 1
 420 556 l 1
 400 556 l 1
 400 146 l 1
 400 28 l 1xd0
 420 48 l 1
 426 52 l 1
 446 74 l 1
 452 78 l 1
 472 100 l 1
 478 105 l 1
 498 124 l 1
 502 131 l 1
 524 150 l 1
EndSplineSet
EndChar
StartChar: P
Encoding: 80 80 15
Width: 534
Flags: MW
HStem: 0 231<41 165 165 176 30 165> 220 143<41 165 41 165 176 365 41 176> 353 213<56 165 41 365 165 176 176 365 56 485 56 500> 555 146<41 365 41 365 61 365 67 365 87 365 93 365 113 365 120 365 139 365 143 365 176 365 176 365 176 376>
VStem: 30 146<0 220 0 231 0 353 0 363 363 555> 165 211<11 555 220 555 231 555 353 555 363 555 363 555> 365 146<220 555 353 555 363 555 363 555 363 588 363 592 363 611 363 618 363 638 363 644 363 664 363 670 363 690 363 690>
LayerCount: 2
Back
Fore
SplineSet
376 690 m 1x94
 511 555 l 1
 511 363 l 1x5a
 500 353 l 1xaa
 365 220 l 1
 176 220 l 1x5a
 176 0 l 1
 30 0 l 1
 30 555 l 1
 30 555 l 1
 30 555 l 1
 176 701 l 1
 365 701 l 1x9a
 376 690 l 1x94
78 588 m 1
 56 566 l 1
 365 566 l 1
 365 588 l 1
 365 592 l 1
 365 611 l 1
 365 618 l 1
 365 638 l 1
 365 644 l 1
 365 664 l 1
 365 670 l 1
 365 690 l 1xaa
 180 690 l 1
 161 670 l 1
 154 664 l 1
 135 644 l 1
 128 638 l 1
 109 618 l 1
 102 611 l 1
 83 592 l 1
 78 588 l 1
365 555 m 1x5a
 176 555 l 1
 176 363 l 1
 365 363 l 1
 365 555 l 1x5a
165 363 m 1x54
 165 555 l 1
 143 555 l 1
 139 555 l 1
 120 555 l 1
 113 555 l 1
 93 555 l 1
 87 555 l 1
 67 555 l 1
 61 555 l 1
 41 555 l 1
 41 363 l 1
 165 363 l 1x54
165 11 m 1
 165 220 l 1
 41 220 l 1
 41 11 l 1
 61 11 l 1
 67 11 l 1
 87 11 l 1
 93 11 l 1
 113 11 l 1
 120 11 l 1
 139 11 l 1
 143 11 l 1
 165 11 l 1
361 231 m 1xaa
 485 353 l 1
 365 353 l 1
 176 353 l 1xaa
 165 353 l 1
 41 353 l 1
 41 231 l 1
 165 231 l 1xa4
 176 231 l 1
 361 231 l 1xaa
479 363 m 1x54
 500 363 l 1
 500 551 l 1
 479 572 l 1
 474 577 l 1
 455 596 l 1
 448 603 l 1
 429 622 l 1
 422 629 l 1
 402 648 l 1
 396 655 l 1
 376 675 l 1
 376 555 l 1
 376 363 l 1
 396 363 l 1
 402 363 l 1
 422 363 l 1
 429 363 l 1
 448 363 l 1
 455 363 l 1
 474 363 l 1
 479 363 l 1x54
EndSplineSet
EndChar
StartChar: Q
Encoding: 81 81 16
Width: 606
Flags: MW
HStem: -22 21G<487 487> 0 146<171 319 27 171> 556 146<27 389 160 389 171 389 171 389 171 400 171 420 171 424 171 446 171 450 171 472 171 476 171 496 171 502 171 522 171 533>
VStem: 27 144<146 556> 160 240<270 556> 389 144<11 556 33 556 37 556 59 556 63 556 76 556 266 266 266 266 281 556 146 556 146 567>
LayerCount: 2
Back
Fore
SplineSet
590 83 m 1xf4
 487 -22 l 1
 426 39 l 1
 400 11 l 1xe8
 389 0 l 1
 171 0 l 1
 38 135 l 1
 38 135 l 1
 27 146 l 1
 27 556 l 1
 171 702 l 1
 389 702 l 1
 533 556 l 1
 533 146 l 1
 529 142 l 1
 590 83 l 1xf4
487 -4 m 1
 574 83 l 1
 520 135 l 1
 513 142 l 1
 513 142 l 1
 400 255 l 1
 400 255 l 1xe8
 389 266 l 1
 389 266 l 1xf4
 311 342 l 1
 223 255 l 1
 339 142 l 1
 345 135 l 1
 345 135 l 1
 487 -4 l 1
319 146 m 1
 208 255 l 1
 311 358 l 1
 389 281 l 1
 389 556 l 1
 171 556 l 1
 171 146 l 1xf4
 319 146 l 1
522 150 m 1
 522 556 l 1
 502 556 l 1
 496 556 l 1
 476 556 l 1
 472 556 l 1
 450 556 l 1
 446 556 l 1
 424 556 l 1
 420 556 l 1
 400 556 l 1
 400 270 l 1xe8
 522 150 l 1
 522 150 l 1
385 691 m 1
 171 691 l 1
 171 669 l 1
 171 665 l 1
 171 645 l 1
 171 639 l 1
 171 619 l 1
 171 613 l 1
 171 593 l 1
 171 589 l 1
 171 567 l 1
 389 567 l 1xf4
 507 567 l 1
 487 589 l 1
 481 593 l 1
 461 613 l 1
 457 619 l 1
 435 639 l 1
 430 645 l 1
 409 665 l 1
 404 669 l 1
 385 691 l 1
38 552 m 1
 38 146 l 1
 58 146 l 1
 62 146 l 1
 84 146 l 1
 88 146 l 1
 110 146 l 1
 114 146 l 1
 134 146 l 1
 140 146 l 1
 160 146 l 1
 160 556 l 1
 160 676 l 1xe8
 140 656 l 1
 134 650 l 1
 114 630 l 1
 110 623 l 1
 88 604 l 1
 84 597 l 1
 62 578 l 1
 58 573 l 1
 38 552 l 1
389 59 m 1xf4
 389 63 l 1
 389 76 l 1
 330 135 l 1
 171 135 l 1
 53 135 l 1
 73 116 l 1
 79 109 l 1
 99 89 l 1
 103 83 l 1
 125 63 l 1
 130 59 l 1
 151 37 l 1
 156 33 l 1
 175 11 l 1
 389 11 l 1
 389 33 l 1
 389 37 l 1
 389 59 l 1xf4
400 28 m 1xe8
 420 48 l 1
 400 65 l 1
 400 28 l 1xe8
EndSplineSet
EndChar
StartChar: R
Encoding: 82 82 17
Width: 527
Flags: MW
HStem: 0 231<40 162 162 173 29 162 40 375 40 508 40 364> 220 143<40 162 40 162 173 364 40 173> 353 213<55 162 40 364 162 173 173 364 55 375 55 482 55 497> 555 146<29 364 29 364 29 364 40 364 40 364 60 364 66 364 86 364 90 364 112 364 116 364 138 364 142 364 173 364 173 364 173 375 173 508>
VStem: 29 144<0 220 0 231 0 353 0 363 363 555> 162 213<11 220 220 220 11 231 11 353 363 555> 364 144<0 220 0 220 0 353 0 353 363 555>
LayerCount: 2
Back
Fore
SplineSet
508 363 m 1x5a
 497 353 l 1xaa
 436 292 l 1
 508 220 l 1x5a
 508 0 l 1
 364 0 l 1xaa
 364 220 l 1
 173 220 l 1x5a
 173 0 l 1
 29 0 l 1
 29 555 l 1
 29 555 l 1
 29 555 l 1
 173 701 l 1
 364 701 l 1x9a
 375 690 l 1x94
 508 555 l 1
 508 363 l 1x5a
375 675 m 1x54
 375 555 l 1
 375 363 l 1
 395 363 l 1
 399 363 l 1
 421 363 l 1
 425 363 l 1
 447 363 l 1
 451 363 l 1
 471 363 l 1
 478 363 l 1
 497 363 l 1
 497 551 l 1
 478 572 l 1
 471 577 l 1
 451 596 l 1
 447 603 l 1
 425 622 l 1
 421 629 l 1
 399 648 l 1
 395 655 l 1
 375 675 l 1x54
75 588 m 1
 55 566 l 1
 364 566 l 1
 364 588 l 1
 364 592 l 1
 364 611 l 1
 364 618 l 1
 364 638 l 1
 364 644 l 1
 364 664 l 1
 364 670 l 1
 364 690 l 1xaa
 177 690 l 1
 158 670 l 1
 153 664 l 1
 132 644 l 1
 127 638 l 1
 105 618 l 1
 101 611 l 1
 81 592 l 1
 75 588 l 1
364 555 m 1x5a
 173 555 l 1
 173 363 l 1
 364 363 l 1
 364 555 l 1x5a
162 363 m 1x54
 162 555 l 1
 142 555 l 1
 138 555 l 1
 116 555 l 1
 112 555 l 1
 90 555 l 1
 86 555 l 1
 66 555 l 1
 60 555 l 1
 40 555 l 1
 40 363 l 1
 162 363 l 1x54
162 11 m 1
 162 220 l 1
 40 220 l 1
 40 11 l 1
 60 11 l 1
 66 11 l 1
 86 11 l 1
 90 11 l 1
 112 11 l 1
 116 11 l 1
 138 11 l 1
 142 11 l 1
 162 11 l 1
360 231 m 1xaa
 364 235 l 1
 364 353 l 1
 173 353 l 1xaa
 162 353 l 1
 40 353 l 1
 40 231 l 1
 162 231 l 1xa4
 173 231 l 1
 360 231 l 1xaa
497 215 m 1
 427 285 l 1
 427 285 l 1
 421 292 l 1
 421 292 l 1
 375 337 l 1
 375 246 l 1
 375 231 l 1
 375 11 l 1xa4
 497 11 l 1
 497 215 l 1
462 333 m 1
 482 353 l 1
 375 353 l 1
 427 300 l 1
 432 302 l 1
 436 307 l 1
 456 329 l 1
 462 333 l 1
EndSplineSet
EndChar
StartChar: S
Encoding: 83 83 18
Width: 504
Flags: MW
HStem: 0 146<34 334 34 334> 135 147<184 334 184 334 45 334 184 453> 271 146<179 334 34 179> 406 159<45 468 60 468 60 468 179 334> 554 145<169 479 179 479 179 479>
VStem: 34 145<0 271 146 271 417 554> 334 145<135 271 146 271 146 271 146 302 146 308 146 328 146 334 146 354 146 358 146 380 146 384 146 406 146 406>
LayerCount: 2
Back
Fore
SplineSet
479 554 m 1xae
 179 554 l 1
 179 417 l 1
 334 417 l 1
 479 271 l 1
 479 146 l 1
 468 137 l 1
 334 0 l 1
 34 0 l 1
 34 146 l 1
 334 146 l 1
 334 271 l 1
 179 271 l 1xae
 45 406 l 1x96
 34 417 l 1
 34 554 l 1
 179 699 l 1
 479 699 l 1
 479 554 l 1xae
468 689 m 1
 179 689 l 1
 179 669 l 1
 179 662 l 1
 179 643 l 1
 179 636 l 1
 179 617 l 1
 179 610 l 1
 179 591 l 1
 179 586 l 1
 179 565 l 1
 468 565 l 1x56
 468 586 l 1
 468 591 l 1
 468 610 l 1
 468 617 l 1
 468 636 l 1
 468 643 l 1
 468 662 l 1
 468 669 l 1
 468 689 l 1
329 11 m 1
 453 135 l 1
 334 135 l 1
 45 135 l 1
 45 11 l 1
 329 11 l 1
371 365 m 1
 364 369 l 1
 344 391 l 1
 344 271 l 1
 344 146 l 1
 364 146 l 1
 371 146 l 1
 390 146 l 1
 397 146 l 1
 416 146 l 1
 423 146 l 1
 442 146 l 1
 447 146 l 1
 468 146 l 1xae
 468 267 l 1
 447 287 l 1
 442 293 l 1
 423 313 l 1
 416 319 l 1
 397 339 l 1
 390 343 l 1
 371 365 l 1
334 406 m 1x56
 179 406 l 1
 60 406 l 1
 79 384 l 1
 86 380 l 1
 106 358 l 1
 112 354 l 1
 132 334 l 1
 138 328 l 1
 158 308 l 1
 162 302 l 1
 184 282 l 1
 334 282 l 1
 334 302 l 1
 334 308 l 1
 334 328 l 1
 334 334 l 1
 334 354 l 1
 334 358 l 1
 334 380 l 1
 334 384 l 1
 334 406 l 1x56
169 417 m 1xae
 169 554 l 1
 169 673 l 1
 147 654 l 1
 142 647 l 1
 123 628 l 1
 116 621 l 1
 97 602 l 1
 90 595 l 1
 71 576 l 1
 64 571 l 1
 45 550 l 1
 45 417 l 1
 64 417 l 1
 71 417 l 1
 90 417 l 1
 97 417 l 1
 116 417 l 1
 123 417 l 1
 142 417 l 1
 147 417 l 1
 169 417 l 1xae
EndSplineSet
EndChar
StartChar: T
Encoding: 84 84 19
Width: 569
Flags: MW
HStem: 0 21G<214 359 214 214> 555 146<16 214 16 557 229 229 229 229 348 348 359 557 359 359>
VStem: 214 145<0 555 0 555> 348 209<11 701 555 566 566 675 675 675 690 690>
LayerCount: 2
Back
Fore
SplineSet
557 701 m 1xd0
 557 555 l 1xd0
 359 555 l 1
 359 0 l 1
 214 0 l 1
 214 555 l 1xe0
 16 555 l 1
 16 701 l 1
 557 701 l 1xd0
26 588 m 1
 26 566 l 1
 224 566 l 1
 348 690 l 1
 26 690 l 1
 26 670 l 1
 26 664 l 1
 26 644 l 1
 26 638 l 1
 26 618 l 1
 26 611 l 1
 26 592 l 1
 26 588 l 1
348 11 m 1
 348 555 l 1
 348 566 l 1
 348 675 l 1
 240 566 l 1
 240 566 l 1
 229 555 l 1
 229 555 l 1
 224 551 l 1
 224 11 l 1
 348 11 l 1
547 670 m 1
 547 690 l 1
 359 690 l 1
 359 566 l 1xe0
 547 566 l 1
 547 588 l 1
 547 592 l 1
 547 611 l 1
 547 618 l 1
 547 638 l 1
 547 644 l 1
 547 664 l 1
 547 670 l 1
EndSplineSet
EndChar
StartChar: U
Encoding: 85 85 20
Width: 523
Flags: MW
HStem: 0 146<170 356 26 170> 679 20G<26 170 170 170 356 502 502 502>
VStem: 26 144<146 699> 159 208<146 689> 356 146<11 699 33 699 37 699 59 699 63 699 83 699 89 699 109 699 115 699 135 699 146 699 146 699>
LayerCount: 2
Back
Fore
SplineSet
356 699 m 1xe8
 502 699 l 1
 502 146 l 1
 356 0 l 1
 170 0 l 1
 37 135 l 1
 37 135 l 1
 26 146 l 1
 26 699 l 1
 170 699 l 1
 170 146 l 1
 356 146 l 1
 356 699 l 1xe8
37 689 m 1
 37 146 l 1
 57 146 l 1
 63 146 l 1
 83 146 l 1
 87 146 l 1
 109 146 l 1
 113 146 l 1
 135 146 l 1
 139 146 l 1
 159 146 l 1
 159 689 l 1xd0
 139 689 l 1
 135 689 l 1
 113 689 l 1
 109 689 l 1
 87 689 l 1
 83 689 l 1
 63 689 l 1
 57 689 l 1
 37 689 l 1
174 11 m 1
 356 11 l 1
 356 33 l 1
 356 37 l 1
 356 59 l 1
 356 63 l 1
 356 83 l 1
 356 89 l 1
 356 109 l 1
 356 115 l 1
 356 135 l 1
 170 135 l 1xe8
 52 135 l 1
 72 115 l 1
 78 109 l 1
 98 89 l 1
 102 83 l 1
 124 63 l 1
 128 59 l 1
 150 37 l 1
 154 33 l 1
 174 11 l 1
491 150 m 1
 491 689 l 1
 367 689 l 1
 367 146 l 1
 367 28 l 1xd0
 491 150 l 1
EndSplineSet
EndChar
StartChar: V
Encoding: 86 86 21
Width: 642
Flags: MW
HStem: 0 21G<247 401 247 247> 680 20G<156 156 492 492>
LayerCount: 2
Back
Fore
SplineSet
492 700 m 1
 628 650 l 1
 401 0 l 1
 247 0 l 1
 19 650 l 1
 156 700 l 1
 323 217 l 1
 492 700 l 1
34 644 m 1
 253 15 l 1
 318 202 l 1
 149 685 l 1
 130 679 l 1
 125 676 l 1
 106 670 l 1
 101 668 l 1
 82 661 l 1
 78 659 l 1
 58 653 l 1
 54 650 l 1
 34 644 l 1
394 13 m 1
 613 644 l 1
 498 685 l 1
 264 13 l 1
 286 13 l 1
 286 13 l 1
 394 13 l 1
EndSplineSet
EndChar
StartChar: W
Encoding: 87 87 22
Width: 836
Flags: MW
HStem: 0 21G<177 326 177 177 513 661 513 513> 682 20G<350 350>
LayerCount: 2
Back
Fore
SplineSet
681 702 m 1
 821 667 l 1
 661 0 l 1
 513 0 l 1
 419 392 l 1
 326 0 l 1
 177 0 l 1
 16 667 l 1
 158 702 l 1
 252 314 l 1
 343 702 l 1
 345 702 l 1
 345 702 l 1
 494 702 l 1
 587 314 l 1
 681 702 l 1
31 661 m 1
 182 24 l 1
 245 290 l 1
 151 689 l 1
 129 685 l 1
 125 682 l 1
 106 678 l 1
 101 678 l 1
 82 671 l 1
 75 671 l 1
 55 667 l 1
 51 665 l 1
 31 661 l 1
317 13 m 1
 413 416 l 1
 350 682 l 1
 191 13 l 1
 230 13 l 1
 230 13 l 1
 238 13 l 1
 243 13 l 1
 265 13 l 1
 269 13 l 1
 291 13 l 1
 297 13 l 1
 317 13 l 1
424 416 m 1
 518 24 l 1
 581 290 l 1
 487 689 l 1
 465 689 l 1
 461 689 l 1
 439 689 l 1
 433 689 l 1
 413 689 l 1
 406 689 l 1
 398 689 l 1
 398 689 l 1
 361 689 l 1
 422 432 l 1
 424 416 l 1
 424 416 l 1
655 13 m 1
 807 661 l 1
 688 689 l 1
 592 283 l 1
 587 266 l 1
 587 266 l 1
 526 13 l 1
 565 13 l 1
 565 13 l 1
 655 13 l 1
EndSplineSet
EndChar
StartChar: X
Encoding: 88 88 23
Width: 638
Flags: MW
HStem: 0 21G<141 141 507 507> 681 20G<141 141 507 507>
LayerCount: 2
Back
Fore
SplineSet
620 611 m 1
 416 350 l 1
 620 91 l 1
 507 0 l 1
 324 233 l 1
 141 0 l 1
 28 91 l 1
 233 350 l 1
 28 611 l 1
 141 701 l 1
 324 468 l 1
 507 701 l 1
 620 611 l 1
43 609 m 1
 239 359 l 1
 318 459 l 1
 139 685 l 1
 124 672 l 1
 120 670 l 1
 104 657 l 1
 100 653 l 1
 83 642 l 1
 80 638 l 1
 63 625 l 1
 59 622 l 1
 43 609 l 1
139 15 m 1
 320 246 l 1
 324 250 l 1
 324 250 l 1
 403 350 l 1
 403 350 l 1
 409 359 l 1
 409 359 l 1
 605 609 l 1
 509 685 l 1
 331 459 l 1
 331 459 l 1
 324 450 l 1
 244 346 l 1
 239 342 l 1
 239 342 l 1
 43 91 l 1
 139 15 l 1
605 91 m 1
 409 342 l 1
 331 242 l 1
 509 15 l 1
 524 28 l 1
 529 33 l 1
 544 46 l 1
 548 48 l 1
 564 61 l 1
 568 63 l 1
 585 76 l 1
 590 81 l 1
 605 91 l 1
EndSplineSet
EndChar
StartChar: Y
Encoding: 89 89 24
Width: 611
Flags: MW
HStem: 0 21G<234 380 234 234> 682 20G<134 134 481 481>
VStem: 234 146<0 325 0 325 342 373 0 373>
LayerCount: 2
Back
Fore
SplineSet
596 615 m 1
 380 325 l 1
 380 0 l 1
 234 0 l 1
 234 325 l 1
 18 615 l 1
 134 702 l 1
 306 471 l 1
 481 702 l 1
 596 615 l 1
313 462 m 1
 306 451 l 1
 306 451 l 1
 306 451 l 1
 306 451 l 1
 284 421 l 1
 278 414 l 1
 278 414 l 1
 276 410 l 1
 263 392 l 1
 263 392 l 1
 258 388 l 1
 258 388 l 1
 249 375 l 1
 252 373 l 1
 380 373 l 1
 380 342 l 1
 581 613 l 1
 566 626 l 1
 561 628 l 1
 544 641 l 1
 539 643 l 1
 524 656 l 1
 520 658 l 1
 502 671 l 1
 498 674 l 1
 483 687 l 1
 313 462 l 1
 313 462 l 1
34 613 m 1
 234 342 l 1
 234 373 l 1
 300 462 l 1
 132 687 l 1
 114 674 l 1
 110 671 l 1
 95 658 l 1
 90 656 l 1
 73 643 l 1
 69 641 l 1
 53 628 l 1
 49 626 l 1
 34 613 l 1
369 11 m 1
 369 310 l 1
 369 310 l 1
 369 329 l 1
 369 329 l 1
 369 362 l 1
 267 362 l 1
 252 362 l 1
 245 362 l 1
 245 329 l 1
 245 329 l 1
 245 310 l 1
 245 310 l 1
 245 11 l 1
 369 11 l 1
EndSplineSet
EndChar
StartChar: Z
Encoding: 90 90 25
Width: 504
Flags: MW
HStem: 0 146<106 191 205 477 106 106> 556 146<24 309 24 407 24 470 24 484>
LayerCount: 2
Back
Fore
SplineSet
484 556 m 1
 205 146 l 1
 477 146 l 1
 477 0 l 1
 106 0 l 1
 30 146 l 1
 309 556 l 1
 24 556 l 1
 24 702 l 1
 407 702 l 1
 407 702 l 1
 407 702 l 1
 484 556 l 1
34 567 m 1
 316 567 l 1
 396 685 l 1
 396 691 l 1
 34 691 l 1
 34 671 l 1
 34 665 l 1
 34 645 l 1
 34 639 l 1
 34 619 l 1
 34 613 l 1
 34 593 l 1
 34 589 l 1
 34 567 l 1
45 148 m 1
 50 146 l 1
 191 146 l 1
 470 556 l 1
 460 578 l 1
 457 582 l 1
 446 604 l 1
 444 608 l 1
 433 628 l 1
 429 634 l 1
 418 654 l 1
 416 661 l 1
 405 680 l 1
 396 667 l 1
 396 667 l 1
 45 148 l 1
468 135 m 1
 198 135 l 1
 185 135 l 1
 65 135 l 1
 50 135 l 1
 52 131 l 1
 52 131 l 1
 113 11 l 1
 466 11 l 1
 468 135 l 1
EndSplineSet
EndChar
StartChar: a
Encoding: 97 97 27
Width: 522
Flags: MW
HStem: 0 145<176 300> 135 206<56 300 56 300 176 300> 330 145<176 176 176 300 176 313>
VStem: 28 148<145 330> 164 149<145 330 330 337 348 449> 300 69<0 68 12 68 68 84 84 128 128 135 135 135 145 330 330 330 341 348 348 362 362 365 365 388 388 392 392 407 407 414 414 418 418 439 439 446 446 463> 358 145<0 58 58 58 72 128 128 128 138 337 337 337 348 404 404 404 418 475 0 475>
LayerCount: 2
Back
Fore
SplineSet
358 475 m 1xb2
 503 475 l 1
 503 0 l 1
 358 0 l 1
 358 58 l 1
 313 12 l 1
 313 12 l 1xaa
 300 0 l 1
 176 0 l 1
 28 145 l 1
 28 330 l 1
 176 475 l 1
 176 475 l 1
 176 475 l 1
 300 475 l 1
 300 475 l 1xb4
 358 418 l 1
 358 475 l 1xb2
358 138 m 1
 358 337 l 1
 337 337 l 1
 337 337 l 1
 334 337 l 1
 313 337 l 1
 313 330 l 1
 313 145 l 1
 313 138 l 1
 337 138 l 1
 337 138 l 1
 344 138 l 1
 358 138 l 1
337 423 m 1
 334 430 l 1
 313 449 l 1
 313 348 l 1
 334 348 l 1
 337 348 l 1
 358 348 l 1
 358 404 l 1
 337 423 l 1
176 362 m 1x54
 176 341 l 1
 300 341 l 1
 300 348 l 1
 300 348 l 1
 300 362 l 1
 300 365 l 1
 300 388 l 1
 300 392 l 1
 300 414 l 1
 300 418 l 1
 300 439 l 1
 300 446 l 1
 300 463 l 1
 176 463 l 1
 176 446 l 1
 176 439 l 1
 176 418 l 1
 176 414 l 1
 176 392 l 1
 176 388 l 1
 176 365 l 1
 176 362 l 1x54
300 330 m 1xb4
 176 330 l 1
 176 145 l 1
 300 145 l 1
 300 330 l 1xb4
40 325 m 1
 40 145 l 1
 59 145 l 1
 66 145 l 1
 85 145 l 1
 92 145 l 1
 112 145 l 1
 117 145 l 1
 140 145 l 1
 143 145 l 1
 164 145 l 1
 164 449 l 1xaa
 143 430 l 1
 140 423 l 1
 117 404 l 1
 112 397 l 1
 92 376 l 1
 85 372 l 1
 66 351 l 1
 59 346 l 1
 40 325 l 1
180 12 m 1
 300 12 l 1
 300 135 l 1
 176 135 l 1
 56 135 l 1x54
 75 114 l 1
 82 107 l 1
 101 87 l 1
 108 84 l 1
 127 61 l 1
 133 58 l 1
 154 37 l 1
 157 30 l 1
 180 12 l 1
337 52 m 1
 358 72 l 1
 358 128 l 1
 344 128 l 1
 337 128 l 1
 313 128 l 1
 313 26 l 1xaa
 334 45 l 1
 337 52 l 1
493 12 m 1
 493 463 l 1
 369 463 l 1
 369 407 l 1
 369 392 l 1
 369 348 l 1
 369 337 l 1
 369 138 l 1
 369 128 l 1
 369 84 l 1
 369 68 l 1
 369 12 l 1xb4
 493 12 l 1
EndSplineSet
EndChar
StartChar: b
Encoding: 98 98 28
Width: 539
Flags: MW
HStem: 0 145<99 99 99 187 41 99 245 374> 134 207<245 374 124 495 245 245> 330 145<109 374 109 374 131 374 136 374 156 374 162 374 182 374 187 374 208 374 212 374 245 374 245 374 245 386> 682 20G<41 187 187 187>
VStem: 41 68<149 330 149 702> 41 146<0 57 0 72 418 702> 99 146<0 11 145 330> 178 67<11 30 30 37 37 57 57 62 62 68 68 68> 234 152<11 330 26 330 145 330 145 330> 374 147<0 330 145 330 145 330 145 360 145 366 145 388 145 391 145 413 145 418 145 437 145 444 145 464 145 464 145 475>
LayerCount: 2
Back
Fore
SplineSet
521 330 m 1xb240
 521 145 l 1
 521 145 l 1
 521 145 l 1
 374 0 l 1
 245 0 l 1xb940
 234 11 l 1
 187 57 l 1
 187 0 l 1
 41 0 l 1
 41 702 l 1
 187 702 l 1
 187 418 l 1xb480
 245 475 l 1
 374 475 l 1
 521 330 l 1xb240
411 425 m 1
 404 431 l 1
 386 448 l 1
 386 330 l 1
 386 145 l 1xb880
 404 145 l 1
 411 145 l 1
 432 145 l 1
 436 145 l 1
 458 145 l 1
 462 145 l 1
 483 145 l 1
 488 145 l 1
 510 145 l 1
 510 326 l 1
 488 348 l 1
 483 352 l 1
 462 373 l 1
 458 379 l 1
 436 397 l 1
 432 404 l 1
 411 425 l 1
202 418 m 1
 197 413 l 1
 178 391 l 1
 171 388 l 1
 151 366 l 1
 144 360 l 1
 124 341 l 1
 374 341 l 1
 374 360 l 1
 374 366 l 1
 374 388 l 1
 374 391 l 1
 374 413 l 1
 374 418 l 1
 374 437 l 1
 374 444 l 1
 374 464 l 1x5940
 249 464 l 1
 227 444 l 1
 223 437 l 1
 202 418 l 1
178 11 m 1
 178 68 l 1xb940
 99 145 l 1
 99 330 l 1
 99 330 l 1
 99 330 l 1xb240
 178 407 l 1
 178 691 l 1xb940
 156 691 l 1
 151 691 l 1
 131 691 l 1
 124 691 l 1
 106 691 l 1
 99 691 l 1
 78 691 l 1
 71 691 l 1
 52 691 l 1
 52 11 l 1
 71 11 l 1
 78 11 l 1
 99 11 l 1xb240
 106 11 l 1
 124 11 l 1
 131 11 l 1
 151 11 l 1
 156 11 l 1
 178 11 l 1
234 26 m 1xb480
 234 145 l 1
 234 330 l 1
 212 330 l 1
 208 330 l 1
 187 330 l 1xb480
 182 330 l 1
 162 330 l 1
 156 330 l 1
 136 330 l 1
 131 330 l 1
 109 330 l 1
 109 149 l 1xb940
 131 130 l 1
 136 124 l 1
 156 102 l 1
 162 99 l 1
 182 77 l 1
 187 72 l 1
 208 52 l 1
 212 46 l 1
 234 26 l 1xb480
474 115 m 1
 495 134 l 1
 245 134 l 1
 245 115 l 1
 245 108 l 1
 245 87 l 1
 245 84 l 1
 245 62 l 1
 245 57 l 1
 245 37 l 1
 245 30 l 1
 245 11 l 1x5240
 369 11 l 1
 391 30 l 1
 396 37 l 1
 418 57 l 1
 422 62 l 1
 443 84 l 1
 448 87 l 1
 467 108 l 1
 474 115 l 1
245 145 m 1xb240
 374 145 l 1
 374 330 l 1
 245 330 l 1
 245 145 l 1xb240
EndSplineSet
EndChar
StartChar: c
Encoding: 99 99 29
Width: 410
Flags: MW
HStem: 0 145<164 403> 133 208<45 392 45 392 164 392> 330 145<153 403 164 403 164 403>
VStem: 18 146<145 330> 153 250<0 330 330 448 448 448 463 463>
LayerCount: 2
Back
Fore
SplineSet
403 330 m 1xa8
 164 330 l 1
 164 145 l 1xb0
 403 145 l 1
 403 0 l 1xa8
 164 0 l 1
 18 145 l 1
 18 330 l 1xb0
 153 463 l 1xa8
 164 475 l 1xb0
 403 475 l 1
 403 330 l 1xa8
164 361 m 1x50
 164 341 l 1
 392 341 l 1
 392 361 l 1
 392 365 l 1
 392 388 l 1
 392 392 l 1
 392 413 l 1
 392 417 l 1
 392 438 l 1
 392 444 l 1
 392 463 l 1
 164 463 l 1
 164 444 l 1
 164 438 l 1
 164 417 l 1
 164 413 l 1
 164 392 l 1
 164 388 l 1
 164 365 l 1
 164 361 l 1x50
392 133 m 1
 164 133 l 1
 45 133 l 1
 168 11 l 1
 392 11 l 1
 392 133 l 1
153 145 m 1xa8
 153 330 l 1
 153 448 l 1
 132 430 l 1
 126 423 l 1
 108 403 l 1
 101 397 l 1
 81 376 l 1
 74 372 l 1
 55 350 l 1
 49 345 l 1
 29 326 l 1
 29 145 l 1
 49 145 l 1
 55 145 l 1
 74 145 l 1
 81 145 l 1
 101 145 l 1
 108 145 l 1
 126 145 l 1
 132 145 l 1
 153 145 l 1xa8
EndSplineSet
EndChar
StartChar: d
Encoding: 100 100 30
Width: 536
Flags: MW
HStem: 0 145<175 304> 134 207<56 304 56 304 175 304> 330 145<175 175 175 304 175 315> 683 20G<361 507 507 507>
VStem: 29 146<145 330> 165 150<145 330 330 337 348 449> 304 67<0 67 11 67 67 84 84 127 127 134 134 134 145 330 330 330 341 348 348 362 362 366 366 388 388 392 392 408 408 414 414 419 419 439 439 445 445 464 464 464 475 475 475 475> 361 146<0 57 57 57 73 127 127 127 138 337 337 337 348 403 403 403 419 703 0 703>
LayerCount: 2
Back
Fore
SplineSet
361 703 m 1xb9
 507 703 l 1
 507 0 l 1
 361 0 l 1
 361 57 l 1
 315 11 l 1
 315 11 l 1xb5
 304 0 l 1
 175 0 l 1
 29 145 l 1
 29 330 l 1
 175 475 l 1
 175 475 l 1
 175 475 l 1
 304 475 l 1
 304 475 l 1xba
 361 419 l 1
 361 703 l 1xb9
361 138 m 1
 361 337 l 1
 341 337 l 1
 341 337 l 1
 334 337 l 1
 315 337 l 1
 315 330 l 1
 315 145 l 1
 315 138 l 1
 341 138 l 1
 341 138 l 1
 350 138 l 1
 361 138 l 1
341 423 m 1
 334 430 l 1
 315 449 l 1
 315 348 l 1
 334 348 l 1
 341 348 l 1
 361 348 l 1
 361 403 l 1
 341 423 l 1
175 362 m 1x5a
 175 341 l 1
 304 341 l 1
 304 348 l 1
 304 348 l 1
 304 362 l 1
 304 366 l 1
 304 388 l 1
 304 392 l 1
 304 414 l 1
 304 419 l 1
 304 439 l 1
 304 445 l 1
 304 464 l 1
 175 464 l 1
 175 445 l 1
 175 439 l 1
 175 419 l 1
 175 414 l 1
 175 392 l 1
 175 388 l 1
 175 366 l 1
 175 362 l 1x5a
304 330 m 1xba
 175 330 l 1
 175 145 l 1
 304 145 l 1
 304 330 l 1xba
40 325 m 1
 40 145 l 1
 63 145 l 1
 66 145 l 1
 88 145 l 1
 93 145 l 1
 113 145 l 1
 120 145 l 1
 139 145 l 1
 145 145 l 1
 165 145 l 1
 165 449 l 1xb5
 145 430 l 1
 139 423 l 1
 120 403 l 1
 113 396 l 1
 93 376 l 1
 88 373 l 1
 66 350 l 1
 63 346 l 1
 40 325 l 1
181 11 m 1
 304 11 l 1
 304 134 l 1
 175 134 l 1
 56 134 l 1x5a
 78 114 l 1
 82 107 l 1
 104 87 l 1
 108 84 l 1
 129 61 l 1
 135 57 l 1
 154 37 l 1
 161 30 l 1
 181 11 l 1
341 52 m 1
 361 73 l 1
 361 127 l 1
 350 127 l 1
 341 127 l 1
 315 127 l 1
 315 27 l 1xb5
 334 46 l 1
 341 52 l 1
497 11 m 1
 497 692 l 1
 371 692 l 1
 371 408 l 1
 371 392 l 1
 371 348 l 1
 371 337 l 1
 371 138 l 1
 371 127 l 1
 371 84 l 1
 371 67 l 1
 371 11 l 1xba
 497 11 l 1
EndSplineSet
EndChar
StartChar: e
Encoding: 101 101 31
Width: 484
Flags: MW
HStem: 0 146<159 409> 135 37<40 329 161 329 161 340 161 398> 161 146<159 329 159 329> 296 44<161 329 161 161> 329 146<148 329 159 329 159 329 159 340 159 360 159 367 159 386 159 393 159 413 159 417 159 439 159 444 159 466>
VStem: 13 148<172 192 192 199 199 219 219 223 223 245 245 250 250 272 272 276 276 296 172 329 172 329> 148 192<172 172 172 188 188 307 307 329 172 448>
LayerCount: 2
Back
Fore
SplineSet
329 475 m 1xaa
 477 329 l 1
 477 307 l 1xaa
 444 276 l 1
 439 272 l 1
 417 250 l 1
 413 245 l 1
 393 225 l 1
 393 225 l 1
 386 219 l 1
 386 219 l 1
 367 199 l 1
 360 192 l 1
 340 172 l 1
 340 172 l 1x52
 329 161 l 1
 159 161 l 1
 159 146 l 1
 409 146 l 1
 409 0 l 1
 159 0 l 1
 13 146 l 1
 13 329 l 1xac
 44 360 l 1
 44 360 l 1
 49 364 l 1
 49 364 l 1
 71 386 l 1
 71 386 l 1
 75 391 l 1
 75 391 l 1
 97 411 l 1
 97 413 l 1
 102 417 l 1
 148 464 l 1
 159 475 l 1
 329 475 l 1xaa
24 322 m 1
 24 146 l 1
 44 146 l 1
 49 146 l 1
 71 146 l 1
 75 146 l 1
 97 146 l 1
 102 146 l 1
 122 146 l 1
 128 146 l 1
 148 146 l 1
 148 329 l 1
 148 448 l 1
 128 428 l 1
 122 422 l 1
 102 402 l 1
 97 395 l 1
 75 375 l 1
 71 371 l 1
 49 349 l 1
 44 344 l 1
 24 322 l 1
398 135 m 1x54
 159 135 l 1
 40 135 l 1
 163 11 l 1
 398 11 l 1
 398 135 l 1x54
329 172 m 1
 329 296 l 1
 161 296 l 1
 161 276 l 1
 161 272 l 1
 161 250 l 1
 161 245 l 1
 161 223 l 1
 161 219 l 1
 161 199 l 1
 161 192 l 1
 161 172 l 1
 329 172 l 1
329 307 m 1xac
 329 329 l 1
 159 329 l 1
 159 307 l 1
 329 307 l 1xac
329 340 m 1x92
 451 340 l 1
 428 360 l 1
 424 364 l 1
 402 386 l 1
 398 391 l 1
 378 411 l 1
 371 417 l 1
 351 437 l 1
 345 444 l 1
 325 464 l 1
 159 464 l 1
 159 444 l 1
 159 437 l 1
 159 417 l 1
 159 411 l 1
 159 391 l 1
 159 386 l 1
 159 364 l 1
 159 360 l 1
 159 340 l 1
 329 340 l 1x92
466 314 m 1
 466 329 l 1
 444 329 l 1
 439 329 l 1
 417 329 l 1
 413 329 l 1
 393 329 l 1
 386 329 l 1
 367 329 l 1
 360 329 l 1
 340 329 l 1
 340 307 l 1
 340 307 l 1xaa
 340 188 l 1
 360 208 l 1
 367 214 l 1
 386 234 l 1
 393 241 l 1
 413 261 l 1
 417 265 l 1
 439 287 l 1
 444 291 l 1
 466 314 l 1
EndSplineSet
EndChar
StartChar: f
Encoding: 102 102 32
Width: 369
Flags: MW
HStem: 0 21G<97 243 97 97> 331 144<3 97 3 97 3 108 3 232 243 363> 464 105<232 347 243 347 243 347 243 352> 558 144<232 358 243 358 243 358>
VStem: 3 105<331 342 342 464 464 475> 97 146<0 331 0 331 342 464 0 464 475 558> 232 126<342 702 464 702 475 702 558 676 676 676 691 691 691 691>
LayerCount: 2
Back
Fore
SplineSet
363 475 m 1xd4
 363 331 l 1
 243 331 l 1
 243 0 l 1
 97 0 l 1
 97 331 l 1xd4
 3 331 l 1
 3 475 l 1xda
 97 475 l 1
 97 558 l 1xd4
 232 691 l 1
 232 691 l 1xda
 243 702 l 1xd4
 358 702 l 1
 358 558 l 1xda
 243 558 l 1
 243 475 l 1
 363 475 l 1xd4
347 691 m 1
 243 691 l 1
 243 671 l 1
 243 665 l 1
 243 645 l 1
 243 641 l 1
 243 619 l 1
 243 615 l 1
 243 593 l 1
 243 589 l 1
 243 569 l 1
 347 569 l 1xa4
 347 589 l 1
 347 593 l 1
 347 615 l 1
 347 619 l 1
 347 641 l 1
 347 645 l 1
 347 665 l 1
 347 671 l 1
 347 691 l 1
14 342 m 1
 97 342 l 1
 97 464 l 1
 14 464 l 1
 14 445 l 1
 14 438 l 1
 14 419 l 1
 14 414 l 1
 14 392 l 1
 14 388 l 1
 14 366 l 1
 14 362 l 1
 14 342 l 1
232 11 m 1xda
 232 331 l 1xda
 232 342 l 1
 232 464 l 1xaa
 232 475 l 1
 232 558 l 1
 232 676 l 1
 108 554 l 1
 108 475 l 1xda
 108 464 l 1xaa
 108 342 l 1
 108 331 l 1
 108 11 l 1
 232 11 l 1xda
352 445 m 1
 352 464 l 1
 243 464 l 1
 243 342 l 1xa4
 352 342 l 1
 352 362 l 1
 352 366 l 1
 352 388 l 1
 352 392 l 1
 352 414 l 1
 352 419 l 1
 352 438 l 1
 352 445 l 1
EndSplineSet
EndChar
StartChar: g
Encoding: 103 103 33
Width: 499
Flags: MW
HStem: -227 146<174 316> -92 103<174 316 174 174 167 434> -35 180<38 49 49 56 56 75 75 80 80 102 102 106 106 128 128 132 132 152 19 163 38 38> 0 145<163 316 19 163> 134 208<45 316 45 316 163 316> 331 144<152 327 163 327 163 316 163 327>
VStem: 19 144<145 331> 152 175<145 331 331 449 449 449> 316 144<-92 475 -81 0 0 0 11 134 134 134 145 331 331 331 342 361 361 366 366 387 387 392 392 414 414 418 418 438 438 444 444 464 464 464>
LayerCount: 2
Back
Fore
SplineSet
327 475 m 1xa5
 460 475 l 1
 460 -81 l 1xa680
 450 -92 l 1x4a80
 316 -227 l 1
 174 -227 l 1
 163 -216 l 1
 27 -81 l 1
 27 -24 l 1
 174 -24 l 1
 174 -81 l 1
 316 -81 l 1
 316 0 l 1
 163 0 l 1
 19 145 l 1
 19 331 l 1x9680
 152 464 l 1
 152 464 l 1xa5
 163 475 l 1xa680
 327 475 l 1
 327 475 l 1xa5
316 464 m 1x8a80
 163 464 l 1
 163 444 l 1
 163 438 l 1
 163 418 l 1
 163 414 l 1
 163 392 l 1
 163 387 l 1
 163 366 l 1
 163 361 l 1
 163 342 l 1
 316 342 l 1
 316 361 l 1
 316 366 l 1
 316 387 l 1
 316 392 l 1
 316 414 l 1
 316 418 l 1
 316 438 l 1
 316 444 l 1
 316 464 l 1x8a80
316 331 m 1xa680
 163 331 l 1
 163 145 l 1
 316 145 l 1
 316 331 l 1xa680
29 326 m 1
 29 145 l 1
 49 145 l 1
 56 145 l 1
 75 145 l 1
 80 145 l 1
 102 145 l 1
 106 145 l 1
 128 145 l 1
 132 145 l 1
 152 145 l 1
 152 331 l 1
 152 449 l 1xa5
 132 429 l 1
 128 422 l 1
 106 403 l 1
 102 396 l 1
 80 377 l 1
 75 372 l 1
 56 350 l 1
 49 346 l 1
 29 326 l 1
167 11 m 1x4a80
 316 11 l 1
 316 134 l 1
 163 134 l 1
 45 134 l 1
 167 11 l 1x4a80
163 -201 m 1
 163 -81 l 1
 163 -35 l 1
 38 -35 l 1xa680
 38 -76 l 1
 163 -201 l 1
415 -114 m 1
 434 -92 l 1
 316 -92 l 1
 174 -92 l 1x4a80
 174 -114 l 1
 174 -118 l 1
 174 -140 l 1
 174 -144 l 1
 174 -164 l 1
 174 -170 l 1
 174 -190 l 1
 174 -197 l 1
 174 -216 l 1
 312 -216 l 1
 331 -197 l 1
 338 -190 l 1
 358 -170 l 1
 362 -164 l 1
 384 -144 l 1
 388 -140 l 1
 408 -118 l 1
 415 -114 l 1
430 -81 m 1x95
 450 -81 l 1
 450 464 l 1
 430 464 l 1
 425 464 l 1
 404 464 l 1
 399 464 l 1
 377 464 l 1
 373 464 l 1
 353 464 l 1
 347 464 l 1
 327 464 l 1
 327 331 l 1
 327 145 l 1
 327 0 l 1
 327 -81 l 1
 347 -81 l 1
 353 -81 l 1
 373 -81 l 1
 377 -81 l 1
 399 -81 l 1
 404 -81 l 1
 425 -81 l 1
 430 -81 l 1x95
EndSplineSet
EndChar
StartChar: h
Encoding: 104 104 34
Width: 486
Flags: MW
HStem: 0 21G<34 181 34 34 316 463 316 316> 330 145<45 316 45 316 181 316 181 316 181 327> 682 20G<34 181 181 181>
VStem: 34 147<0 330 0 341 0 459 0 475 475 702 0 330 0 330> 170 157<11 330 11 330 341 341 11 449 11 449 11 691> 316 147<0 330 0 330 0 361 0 365 0 387 0 392 0 414 0 418 0 438 0 444 0 464 0 464 0 475>
LayerCount: 2
Back
Fore
SplineSet
316 475 m 1xf4
 463 330 l 1
 463 0 l 1
 316 0 l 1
 316 330 l 1
 181 330 l 1
 181 0 l 1
 34 0 l 1
 34 330 l 1
 34 330 l 1
 34 330 l 1
 34 702 l 1
 181 702 l 1
 181 475 l 1
 316 475 l 1xf4
45 691 m 1
 45 341 l 1
 170 464 l 1
 170 691 l 1xe8
 150 691 l 1
 144 691 l 1
 124 691 l 1
 117 691 l 1
 98 691 l 1
 91 691 l 1
 71 691 l 1
 67 691 l 1
 45 691 l 1
170 11 m 1
 170 330 l 1
 45 330 l 1
 45 11 l 1
 67 11 l 1
 71 11 l 1
 91 11 l 1
 98 11 l 1
 117 11 l 1
 124 11 l 1
 144 11 l 1
 150 11 l 1
 170 11 l 1
181 341 m 1xf4
 316 341 l 1
 316 361 l 1
 316 365 l 1
 316 387 l 1
 316 392 l 1
 316 414 l 1
 316 418 l 1
 316 438 l 1
 316 444 l 1
 316 464 l 1
 185 464 l 1
 181 459 l 1
 181 459 l 1xf4
 170 449 l 1
 170 449 l 1
 165 444 l 1
 159 438 l 1
 139 418 l 1
 133 414 l 1
 113 392 l 1
 109 387 l 1
 87 365 l 1
 82 361 l 1
 60 341 l 1
 170 341 l 1xe8
 181 341 l 1xf4
452 11 m 1
 452 324 l 1
 327 449 l 1
 327 330 l 1
 327 11 l 1xe8
 452 11 l 1
EndSplineSet
EndChar
StartChar: i
Encoding: 105 105 35
Width: 217
Flags: MW
HStem: 0 21G<38 38 38 182> 463 68<49 171 49 171> 520 144<38 182 38 182>
VStem: 38 144<0 474 0 474 520 664>
LayerCount: 2
Back
Fore
SplineSet
38 0 m 1xd0
 38 474 l 1
 182 474 l 1
 182 0 l 1
 38 0 l 1xd0
49 463 m 1
 49 11 l 1
 171 11 l 1
 171 463 l 1
 49 463 l 1
38 664 m 1xb0
 182 664 l 1
 182 520 l 1
 38 520 l 1
 38 664 l 1xb0
171 531 m 1xd0
 171 653 l 1
 49 653 l 1
 49 531 l 1
 171 531 l 1xd0
EndSplineSet
EndChar
StartChar: j
Encoding: 106 106 36
Width: 377
Flags: MW
HStem: -228 147<96 201 -50 96> -20 20G<-50 96 96 96> 464 68<212 337 212 234 234 238 238 258 258 265 265 284 284 291 291 311 311 315 315 337> 521 144<201 348 201 348>
VStem: -50 146<-81 0> 85 127<-201 464 -81 -11 -11 -11> 201 147<-92 475 -81 475 -81 475 521 665>
LayerCount: 2
Back
Fore
SplineSet
201 665 m 1xda
 348 665 l 1
 348 521 l 1
 201 521 l 1
 201 665 l 1xda
337 532 m 1xe4
 337 654 l 1
 212 654 l 1
 212 532 l 1
 337 532 l 1xe4
201 -81 m 1xda
 201 475 l 1
 348 475 l 1
 348 -81 l 1
 201 -228 l 1
 96 -228 l 1xda
 85 -217 l 1xd4
 -50 -81 l 1
 -50 0 l 1
 96 0 l 1
 96 -81 l 1
 201 -81 l 1xda
85 -201 m 1xd4
 85 -81 l 1
 85 -11 l 1
 -40 -11 l 1
 -40 -77 l 1
 85 -201 l 1xd4
300 -114 m 1
 321 -92 l 1
 201 -92 l 1
 96 -92 l 1
 96 -114 l 1
 96 -118 l 1
 96 -140 l 1
 96 -144 l 1
 96 -164 l 1
 96 -171 l 1
 96 -190 l 1
 96 -197 l 1
 96 -217 l 1xea
 197 -217 l 1
 216 -197 l 1
 223 -190 l 1
 243 -171 l 1
 249 -164 l 1
 269 -144 l 1
 276 -140 l 1
 295 -118 l 1
 300 -114 l 1
212 464 m 1xe4
 212 -81 l 1
 234 -81 l 1
 238 -81 l 1
 258 -81 l 1
 265 -81 l 1
 284 -81 l 1
 291 -81 l 1
 311 -81 l 1
 315 -81 l 1
 337 -81 l 1
 337 464 l 1
 315 464 l 1
 311 464 l 1
 291 464 l 1
 284 464 l 1
 265 464 l 1
 258 464 l 1
 238 464 l 1
 234 464 l 1
 212 464 l 1xe4
EndSplineSet
EndChar
StartChar: k
Encoding: 107 107 37
Width: 419
Flags: MW
HStem: -20 20G<34 178 34 34> -4 21G<320 320> 680 20G<34 178 178 178>
VStem: 34 92<153 307 153 700> 34 144<0 100 0 113 375 700>
LayerCount: 2
Back
Fore
SplineSet
407 111 m 1xa8
 320 -4 l 1x68
 178 100 l 1
 178 0 l 1
 34 0 l 1
 34 700 l 1
 178 700 l 1
 178 375 l 1
 318 477 l 1
 405 360 l 1
 237 238 l 1
 407 111 l 1xa8
329 445 m 1
 316 462 l 1
 133 325 l 1
 143 310 l 1
 146 305 l 1
 228 244 l 1
 390 362 l 1
 377 379 l 1
 374 384 l 1
 361 399 l 1
 359 403 l 1
 346 421 l 1
 344 425 l 1
 331 440 l 1
 329 445 l 1
167 11 m 1
 167 109 l 1
 117 146 l 1
 117 329 l 1
 167 366 l 1
 167 689 l 1
 148 689 l 1
 141 689 l 1
 122 689 l 1
 117 689 l 1
 95 689 l 1
 91 689 l 1
 69 689 l 1
 65 689 l 1
 45 689 l 1
 45 11 l 1
 65 11 l 1
 69 11 l 1
 91 11 l 1
 95 11 l 1
 117 11 l 1
 122 11 l 1
 141 11 l 1
 148 11 l 1
 167 11 l 1
178 113 m 1
 318 11 l 1
 392 109 l 1
 126 307 l 1
 126 153 l 1xb0
 170 120 l 1
 178 113 l 1
 178 113 l 1
EndSplineSet
EndChar
StartChar: l
Encoding: 108 108 38
Width: 249
Flags: MW
HStem: 0 144<168 242> 680 20G<22 168 168 168>
VStem: 22 146<144 700>
LayerCount: 2
Back
Fore
SplineSet
168 144 m 1
 242 144 l 1
 242 0 l 1
 168 0 l 1
 22 144 l 1
 22 700 l 1
 168 700 l 1
 168 144 l 1
33 689 m 1
 33 144 l 1
 55 144 l 1
 59 144 l 1
 81 144 l 1
 85 144 l 1
 105 144 l 1
 112 144 l 1
 131 144 l 1
 138 144 l 1
 157 144 l 1
 157 689 l 1
 138 689 l 1
 131 689 l 1
 112 689 l 1
 105 689 l 1
 85 689 l 1
 81 689 l 1
 59 689 l 1
 55 689 l 1
 33 689 l 1
231 11 m 1
 231 133 l 1
 168 133 l 1
 50 133 l 1
 173 11 l 1
 231 11 l 1
EndSplineSet
EndChar
StartChar: m
Encoding: 109 109 39
Width: 701
Flags: MW
HStem: 0 21G<27 173 27 27 278 422 278 278 527 674 527 527> 330 144<38 60 60 64 64 84 84 90 90 110 110 117 117 136 136 143 143 162 38 38 173 278 38 173 422 527> 465 20G<27 173 173 173>
VStem: 27 146<0 330 0 341 0 474 474 485> 162 127<11 330 11 330 11 341> 278 144<0 330 0 330 0 360 0 365 0 387 0 391 0 413 0 417 0 437 0 443 0 463 0 463> 411 127<11 323 323 323 341 341> 527 147<0 330 0 330 0 360 0 365 0 387 0 391 0 413 0 417 0 437 0 443 0 463 0 463 0 474>
LayerCount: 2
Back
Fore
SplineSet
527 474 m 1xd5
 674 330 l 1
 674 0 l 1
 527 0 l 1
 527 330 l 1
 422 330 l 1
 422 0 l 1
 278 0 l 1
 278 330 l 1
 173 330 l 1xd5
 173 0 l 1
 27 0 l 1
 27 485 l 1
 173 485 l 1xb5
 173 474 l 1
 278 474 l 1xd5
 289 463 l 1xca
 350 402 l 1
 422 474 l 1
 527 474 l 1xd5
38 474 m 1
 38 341 l 1
 162 463 l 1
 162 474 l 1xca
 143 474 l 1
 136 474 l 1
 117 474 l 1
 110 474 l 1
 90 474 l 1
 84 474 l 1
 64 474 l 1
 60 474 l 1
 38 474 l 1
162 11 m 1
 162 330 l 1
 38 330 l 1
 38 11 l 1
 60 11 l 1
 64 11 l 1
 84 11 l 1
 90 11 l 1
 110 11 l 1
 117 11 l 1
 136 11 l 1
 143 11 l 1
 162 11 l 1
173 341 m 1xd5
 278 341 l 1
 278 360 l 1
 278 365 l 1
 278 387 l 1
 278 391 l 1
 278 413 l 1
 278 417 l 1
 278 437 l 1
 278 443 l 1
 278 463 l 1xd5
 178 463 l 1
 158 443 l 1
 152 437 l 1
 132 417 l 1
 125 413 l 1
 106 391 l 1
 99 387 l 1
 79 365 l 1
 75 360 l 1
 53 341 l 1
 162 341 l 1xca
 173 341 l 1xd5
289 448 m 1xca
 289 341 l 1
 344 393 l 1
 339 395 l 1
 335 402 l 1
 315 422 l 1
 309 428 l 1
 289 448 l 1xca
411 323 m 1
 407 330 l 1
 289 330 l 1
 289 11 l 1
 309 11 l 1
 315 11 l 1
 335 11 l 1
 339 11 l 1
 361 11 l 1
 366 11 l 1
 387 11 l 1
 392 11 l 1
 411 11 l 1
 411 323 l 1
411 341 m 1
 527 341 l 1
 527 360 l 1
 527 365 l 1
 527 387 l 1
 527 391 l 1
 527 413 l 1
 527 417 l 1
 527 437 l 1
 527 443 l 1
 527 463 l 1xd5
 427 463 l 1
 407 443 l 1
 403 437 l 1
 381 417 l 1
 377 413 l 1
 359 393 l 1
 359 393 l 1
 350 387 l 1
 350 387 l 1
 350 387 l 1
 331 365 l 1
 324 360 l 1
 304 341 l 1
 396 341 l 1
 411 341 l 1
663 11 m 1
 663 323 l 1
 538 448 l 1
 538 330 l 1
 538 11 l 1
 663 11 l 1
EndSplineSet
EndChar
StartChar: n
Encoding: 110 110 40
Width: 486
Flags: MW
HStem: 0 21G<36 180 36 36 318 462 318 318> 330 155<36 180 36 180 36 180 47 47 47 169 36 318 36 180 36 329> 463 22<169 169 36 185 36 318>
VStem: 36 144<0 330 0 341 474 485 0 330 0 330> 169 160<11 330 11 330 341 341 11 474 11 474> 318 144<0 330 0 330 0 360 0 365 0 387 0 391 0 413 0 417 0 437 0 443 0 463 0 463>
LayerCount: 2
Back
Fore
SplineSet
318 474 m 1xd4
 462 330 l 1
 462 0 l 1
 318 0 l 1
 318 330 l 1
 180 330 l 1
 180 0 l 1
 36 0 l 1
 36 330 l 1
 36 330 l 1
 36 330 l 1
 36 485 l 1
 180 485 l 1
 180 474 l 1
 318 474 l 1xd4
47 474 m 1
 47 341 l 1
 169 463 l 1
 169 474 l 1xa8
 150 474 l 1
 145 474 l 1
 124 474 l 1
 119 474 l 1
 97 474 l 1
 93 474 l 1
 73 474 l 1
 67 474 l 1
 47 474 l 1
169 11 m 1
 169 330 l 1
 47 330 l 1xc8
 47 11 l 1
 67 11 l 1
 73 11 l 1
 93 11 l 1
 97 11 l 1
 119 11 l 1
 124 11 l 1
 145 11 l 1
 150 11 l 1
 169 11 l 1
180 341 m 1xd4
 318 341 l 1
 318 360 l 1
 318 365 l 1
 318 387 l 1
 318 391 l 1
 318 413 l 1
 318 417 l 1
 318 437 l 1
 318 443 l 1
 318 463 l 1xb4
 185 463 l 1
 165 443 l 1
 161 437 l 1
 139 417 l 1
 135 413 l 1
 113 391 l 1
 108 387 l 1
 89 365 l 1
 82 360 l 1
 62 341 l 1
 169 341 l 1xa8
 180 341 l 1xd4
451 11 m 1
 451 323 l 1
 329 448 l 1
 329 330 l 1
 329 11 l 1xc8
 451 11 l 1
EndSplineSet
EndChar
StartChar: o
Encoding: 111 111 41
Width: 479
Flags: MW
HStem: 0 144<163 312> 133 208<163 312 45 432> 330 145<152 312 163 312 163 312 163 323 163 342 163 349 163 368 163 375 163 395 163 399 163 421 163 425 163 447>
VStem: 18 145<0 144 144 330 0 144> 152 171<144 330> 312 146<0 330 11 330 31 330 37 330 57 330 61 330 83 330 88 330 107 330 114 330 133 330 144 330 144 330 144 475>
LayerCount: 2
Back
Fore
SplineSet
458 330 m 1xb4
 458 330 l 1
 458 330 l 1
 458 144 l 1xb4
 323 11 l 1xa8
 312 0 l 1
 163 0 l 1
 18 144 l 1
 18 144 l 1
 18 144 l 1
 18 330 l 1xb4
 152 464 l 1xa8
 163 475 l 1
 312 475 l 1
 458 330 l 1xb4
163 361 m 1
 163 341 l 1
 432 341 l 1x54
 410 361 l 1
 406 365 l 1
 384 387 l 1
 379 392 l 1
 360 414 l 1
 353 418 l 1
 333 438 l 1
 327 444 l 1
 307 464 l 1
 163 464 l 1
 163 444 l 1
 163 438 l 1
 163 418 l 1
 163 414 l 1
 163 392 l 1
 163 387 l 1
 163 365 l 1
 163 361 l 1
29 326 m 1
 29 144 l 1
 51 144 l 1
 56 144 l 1
 75 144 l 1
 82 144 l 1
 102 144 l 1
 108 144 l 1
 128 144 l 1
 134 144 l 1
 152 144 l 1
 152 330 l 1
 152 449 l 1xa8
 134 431 l 1
 128 424 l 1
 108 405 l 1
 102 398 l 1
 82 379 l 1
 75 372 l 1
 56 352 l 1
 51 348 l 1
 29 326 l 1
312 114 m 1x54
 312 133 l 1
 45 133 l 1
 64 114 l 1
 69 107 l 1
 91 88 l 1
 95 83 l 1
 117 61 l 1
 121 57 l 1
 141 37 l 1
 148 31 l 1
 167 11 l 1
 312 11 l 1
 312 31 l 1
 312 37 l 1
 312 57 l 1
 312 61 l 1
 312 83 l 1
 312 88 l 1
 312 107 l 1
 312 114 l 1x54
447 149 m 1
 447 330 l 1
 425 330 l 1
 421 330 l 1
 399 330 l 1
 395 330 l 1
 375 330 l 1
 368 330 l 1
 349 330 l 1
 342 330 l 1
 323 330 l 1
 323 144 l 1
 323 26 l 1xa8
 342 46 l 1
 349 53 l 1
 368 72 l 1
 375 77 l 1
 395 98 l 1
 399 103 l 1
 421 125 l 1
 425 129 l 1
 447 149 l 1
312 144 m 1xb4
 312 330 l 1
 163 330 l 1
 163 144 l 1
 312 144 l 1xb4
EndSplineSet
EndChar
StartChar: p
Encoding: 112 112 42
Width: 541
Flags: MW
HStem: -228 21G<32 178 32 32> 0 144<235 367> 133 208<235 367 117 487 235 235> 330 145<91 91 91 91 91 91 102 102 102 124 124 128 128 148 148 154 154 174 174 178 32 181 32 200 32 207 32 224 235 367 32 235>
VStem: 32 70<149 330 149 475> 32 146<-228 57 418 475> 91 144<144 330> 168 67<0 0 0 11 11 31 31 37 37 57 57 61 61 68 68 68> 224 154<26 330 144 330 144 330> 367 144<144 330>
LayerCount: 2
Back
Fore
SplineSet
511 144 m 1xd940
 513 144 l 1
 367 0 l 1
 235 0 l 1xd240
 178 57 l 1
 178 -228 l 1
 32 -228 l 1
 32 475 l 1
 178 475 l 1
 178 418 l 1xd480
 235 475 l 1
 367 475 l 1xd240
 378 464 l 1xd880
 511 330 l 1
 511 144 l 1
 511 144 l 1xd940
235 144 m 1
 367 144 l 1
 367 330 l 1
 235 330 l 1
 235 144 l 1
378 449 m 1xd880
 378 330 l 1
 378 144 l 1
 397 144 l 1
 404 144 l 1
 424 144 l 1
 430 144 l 1
 450 144 l 1
 454 144 l 1
 476 144 l 1
 480 144 l 1
 500 144 l 1
 500 326 l 1
 480 346 l 1
 476 350 l 1
 454 372 l 1
 450 376 l 1
 430 398 l 1
 424 403 l 1
 404 422 l 1
 397 429 l 1
 378 449 l 1xd880
189 414 m 1
 178 403 l 1
 178 403 l 1xd480
 168 392 l 1
 168 392 l 1
 163 387 l 1
 141 365 l 1
 137 361 l 1
 117 341 l 1
 367 341 l 1
 367 361 l 1
 367 365 l 1
 367 387 l 1
 367 392 l 1
 367 414 l 1
 367 418 l 1
 367 438 l 1
 367 444 l 1
 367 464 l 1xa940
 240 464 l 1
 220 444 l 1
 213 438 l 1
 194 418 l 1
 189 414 l 1
168 -217 m 1xd940
 168 68 l 1xd940
 91 144 l 1
 91 330 l 1
 91 330 l 1
 91 330 l 1xd240
 168 407 l 1
 168 464 l 1xd940
 148 464 l 1
 141 464 l 1
 122 464 l 1
 115 464 l 1
 95 464 l 1
 91 464 l 1
 69 464 l 1
 65 464 l 1
 43 464 l 1
 43 -217 l 1
 65 -217 l 1
 69 -217 l 1
 91 -217 l 1xd240
 95 -217 l 1
 115 -217 l 1
 122 -217 l 1
 141 -217 l 1
 148 -217 l 1
 168 -217 l 1xd940
200 50 m 1
 207 44 l 1
 224 26 l 1
 224 144 l 1
 224 330 l 1xd880
 207 330 l 1
 200 330 l 1
 181 330 l 1
 174 330 l 1
 154 330 l 1
 148 330 l 1
 128 330 l 1
 124 330 l 1
 102 330 l 1
 102 149 l 1
 124 127 l 1
 128 123 l 1
 148 101 l 1
 154 96 l 1
 174 77 l 1
 181 70 l 1
 200 50 l 1
465 114 m 1
 487 133 l 1
 235 133 l 1
 235 114 l 1
 235 107 l 1
 235 88 l 1
 235 83 l 1
 235 61 l 1
 235 57 l 1
 235 37 l 1
 235 31 l 1
 235 11 l 1xa240
 362 11 l 1
 382 31 l 1
 389 37 l 1
 408 57 l 1
 415 61 l 1
 434 83 l 1
 439 88 l 1
 461 107 l 1
 465 114 l 1
EndSplineSet
EndChar
StartChar: q
Encoding: 113 113 43
Width: 543
Flags: MW
HStem: -228 21G<364 509 364 364> 0 144<176 305> 133 208<176 305 56 364> 330 145<165 305 176 305 176 305 176 316 176 338 176 342 176 362>
VStem: 29 147<0 144 144 330 0 144> 165 151<144 330> 305 70<0 0 11 31 31 37 37 57 57 61 61 83 83 88 88 107 107 114 114 133 133 133 144 330 330 330 -217 475> 364 145<-228 57 57 57 341 403 403 403 418 475 -228 475>
LayerCount: 2
Back
Fore
SplineSet
364 475 m 1xd9
 509 475 l 1
 509 -228 l 1
 364 -228 l 1
 364 57 l 1xd9
 305 0 l 1
 176 0 l 1
 29 144 l 1
 29 144 l 1
 29 144 l 1
 29 330 l 1xda
 165 464 l 1xd5
 176 475 l 1
 305 475 l 1xda
 364 418 l 1
 364 475 l 1xd9
176 361 m 1
 176 341 l 1
 364 341 l 1xa9
 364 403 l 1
 353 414 l 1
 349 418 l 1
 327 438 l 1
 323 444 l 1
 301 464 l 1
 176 464 l 1
 176 444 l 1
 176 438 l 1
 176 418 l 1
 176 414 l 1
 176 392 l 1
 176 387 l 1
 176 365 l 1
 176 361 l 1
40 326 m 1
 40 144 l 1
 62 144 l 1
 69 144 l 1
 88 144 l 1
 93 144 l 1
 115 144 l 1
 119 144 l 1
 141 144 l 1
 145 144 l 1
 165 144 l 1
 165 330 l 1
 165 449 l 1xd5
 145 431 l 1
 141 424 l 1
 119 405 l 1
 115 398 l 1
 93 379 l 1
 88 372 l 1
 69 352 l 1
 62 348 l 1
 40 326 l 1
176 330 m 1xda
 176 144 l 1
 305 144 l 1
 305 330 l 1
 176 330 l 1xda
180 11 m 1
 305 11 l 1
 305 31 l 1
 305 37 l 1
 305 57 l 1
 305 61 l 1
 305 83 l 1
 305 88 l 1
 305 107 l 1
 305 114 l 1
 305 133 l 1
 56 133 l 1xaa
 75 114 l 1
 82 107 l 1
 102 88 l 1
 108 83 l 1
 128 61 l 1
 134 57 l 1
 154 37 l 1
 159 31 l 1
 180 11 l 1
342 53 m 1
 362 72 l 1
 362 330 l 1
 342 330 l 1
 338 330 l 1
 316 330 l 1
 316 144 l 1
 316 26 l 1xd5
 338 46 l 1
 342 53 l 1
498 -217 m 1
 498 464 l 1
 375 464 l 1
 375 -217 l 1xda
 498 -217 l 1
EndSplineSet
EndChar
StartChar: r
Encoding: 114 114 44
Width: 352
Flags: MW
HStem: 0 21G<20 166 20 20> 330 144<31 53 53 57 57 79 79 83 83 103 103 110 110 129 129 136 136 156 31 31 166 343 31 166> 465 20G<20 166 166 166>
VStem: 20 146<0 330 0 459 0 474 474 485> 156 187<11 474 330 474 448 448 448 448 463 474 330 474>
LayerCount: 2
Back
Fore
SplineSet
343 474 m 1xc8
 343 330 l 1xc8
 166 330 l 1xd0
 166 0 l 1
 20 0 l 1
 20 485 l 1
 166 485 l 1xb0
 166 474 l 1xd0
 343 474 l 1xc8
31 474 m 1
 31 341 l 1
 156 463 l 1
 156 474 l 1
 136 474 l 1
 129 474 l 1
 110 474 l 1
 103 474 l 1
 83 474 l 1
 79 474 l 1
 57 474 l 1
 53 474 l 1
 31 474 l 1
156 11 m 1
 156 330 l 1
 31 330 l 1
 31 11 l 1
 53 11 l 1
 57 11 l 1
 79 11 l 1
 83 11 l 1
 103 11 l 1
 110 11 l 1
 129 11 l 1
 136 11 l 1
 156 11 l 1
332 341 m 1
 332 463 l 1
 171 463 l 1
 166 459 l 1
 166 459 l 1xd0
 156 448 l 1
 156 448 l 1
 49 341 l 1
 332 341 l 1
EndSplineSet
EndChar
StartChar: s
Encoding: 115 115 45
Width: 480
Flags: MW
HStem: 0 144<52 328 52 328> 133 42<155 328 155 328 155 448> 164 144<151 328> 297 44<33 406 151 328 339 339> 330 144<140 417 151 417 151 417>
LayerCount: 2
Back
Fore
SplineSet
339 297 m 1x90
 474 164 l 1
 474 144 l 1
 328 0 l 1
 52 0 l 1
 52 144 l 1
 328 144 l 1
 328 164 l 1
 151 164 l 1
 7 308 l 1
 7 330 l 1
 140 463 l 1
 151 474 l 1
 417 474 l 1
 417 330 l 1
 151 330 l 1
 151 308 l 1
 328 308 l 1xa8
 339 297 l 1x90
151 360 m 1
 151 341 l 1
 406 341 l 1
 406 360 l 1
 406 365 l 1
 406 387 l 1
 406 391 l 1
 406 413 l 1
 406 417 l 1
 406 437 l 1
 406 443 l 1
 406 463 l 1
 151 463 l 1
 151 443 l 1
 151 437 l 1
 151 417 l 1
 151 413 l 1
 151 391 l 1
 151 387 l 1
 151 365 l 1
 151 360 l 1
17 325 m 1
 17 308 l 1
 37 308 l 1
 44 308 l 1
 63 308 l 1
 68 308 l 1
 90 308 l 1
 94 308 l 1
 116 308 l 1
 120 308 l 1
 140 308 l 1
 140 330 l 1xa8
 140 448 l 1
 120 428 l 1
 116 422 l 1
 94 402 l 1
 90 397 l 1
 68 376 l 1
 63 371 l 1
 44 349 l 1
 37 345 l 1
 17 325 l 1
155 175 m 1x50
 328 175 l 1
 328 194 l 1
 328 199 l 1
 328 221 l 1
 328 225 l 1
 328 247 l 1
 328 251 l 1
 328 271 l 1
 328 277 l 1
 328 297 l 1
 151 297 l 1
 33 297 l 1
 52 277 l 1
 59 271 l 1
 79 251 l 1
 83 247 l 1
 105 225 l 1
 109 221 l 1
 131 199 l 1
 135 194 l 1
 155 175 l 1x50
323 11 m 1
 448 133 l 1
 328 133 l 1
 63 133 l 1
 63 11 l 1
 323 11 l 1
441 144 m 1xa8
 463 144 l 1
 463 159 l 1
 441 179 l 1
 437 183 l 1
 417 205 l 1
 411 210 l 1
 391 232 l 1
 384 236 l 1
 365 256 l 1
 358 262 l 1
 339 282 l 1
 339 164 l 1
 339 144 l 1
 358 144 l 1
 365 144 l 1
 384 144 l 1
 391 144 l 1
 411 144 l 1
 417 144 l 1
 437 144 l 1
 441 144 l 1xa8
EndSplineSet
EndChar
StartChar: t
Encoding: 116 116 46
Width: 369
Flags: MW
HStem: 0 144<247 356> 133 208<17 111 17 127 17 236 17 247 247 341> 330 145<6 100 6 100 6 236 6 236 247 352> 558 20G<100 247 247 247>
VStem: 6 105<330 475 475 475> 100 147<144 330 341 464 475 578> 236 116<144 475 330 341 330 475 341 464 341 341 464 475 464 464 330 567 330 475 330 567>
LayerCount: 2
Back
Fore
SplineSet
247 144 m 1xb4
 356 144 l 1
 356 0 l 1
 247 0 l 1xb4
 111 133 l 1x5a
 100 144 l 1
 100 330 l 1xb4
 6 330 l 1
 6 475 l 1xba
 100 475 l 1
 100 578 l 1
 247 578 l 1
 247 475 l 1xb4
 352 475 l 1
 352 330 l 1xba
 247 330 l 1
 247 144 l 1xb4
341 464 m 1
 247 464 l 1
 247 341 l 1
 341 341 l 1x54
 341 361 l 1
 341 365 l 1
 341 387 l 1
 341 392 l 1
 341 414 l 1
 341 418 l 1
 341 438 l 1
 341 444 l 1
 341 464 l 1
17 341 m 1
 100 341 l 1
 100 464 l 1
 17 464 l 1
 17 444 l 1
 17 438 l 1
 17 418 l 1
 17 414 l 1
 17 392 l 1
 17 387 l 1
 17 365 l 1
 17 361 l 1
 17 341 l 1
111 567 m 1xba
 111 144 l 1
 133 144 l 1
 137 144 l 1
 157 144 l 1
 164 144 l 1
 183 144 l 1
 190 144 l 1
 210 144 l 1
 216 144 l 1
 236 144 l 1
 236 330 l 1
 236 330 l 1xba
 236 341 l 1
 236 341 l 1x5a
 236 464 l 1
 236 464 l 1
 236 475 l 1
 236 475 l 1
 236 567 l 1
 216 567 l 1
 210 567 l 1
 190 567 l 1
 183 567 l 1
 164 567 l 1
 157 567 l 1
 137 567 l 1
 133 567 l 1
 111 567 l 1xba
345 11 m 1
 345 133 l 1
 247 133 l 1
 127 133 l 1x54
 251 11 l 1
 345 11 l 1
EndSplineSet
EndChar
StartChar: u
Encoding: 117 117 47
Width: 484
Flags: MW
HStem: -20 20G<172 308 172 172 319 443 443 443> -11 22<176 454 176 308> -11 155<308 308> 455 20G<25 172 172 172 308 454 454 454>
VStem: 25 147<144 475> 161 158<144 464> 308 146<-11 0 0 0 11 133 133 133 144 475 -11 475>
LayerCount: 2
Back
Fore
SplineSet
308 475 m 1x3a
 454 475 l 1
 454 -11 l 1
 308 -11 l 1x5a
 308 0 l 1
 172 0 l 1x9a
 25 144 l 1
 25 475 l 1
 172 475 l 1
 172 144 l 1
 308 144 l 1
 308 475 l 1x3a
36 464 m 1
 36 144 l 1
 56 144 l 1
 63 144 l 1
 82 144 l 1
 89 144 l 1
 109 144 l 1
 115 144 l 1
 135 144 l 1
 139 144 l 1
 161 144 l 1
 161 464 l 1x34
 139 464 l 1
 135 464 l 1
 115 464 l 1
 109 464 l 1
 89 464 l 1
 82 464 l 1
 63 464 l 1
 56 464 l 1
 36 464 l 1
176 11 m 1x5a
 308 11 l 1
 308 133 l 1
 172 133 l 1
 52 133 l 1
 176 11 l 1x5a
443 0 m 1x94
 443 464 l 1
 319 464 l 1
 319 144 l 1x34
 319 0 l 1
 443 0 l 1x94
EndSplineSet
EndChar
StartChar: v
Encoding: 118 118 48
Width: 543
Flags: MW
HStem: 0 21G<191 350 191 191> 472 20G<140 140 401 401>
LayerCount: 2
Back
Fore
SplineSet
401 492 m 1
 539 434 l 1
 350 0 l 1
 191 0 l 1
 5 434 l 1
 140 492 l 1
 270 186 l 1
 401 492 l 1
195 13 m 1
 197 13 l 1
 264 173 l 1
 133 476 l 1
 115 470 l 1
 111 468 l 1
 91 459 l 1
 87 456 l 1
 67 448 l 1
 62 445 l 1
 42 439 l 1
 38 437 l 1
 18 428 l 1
 195 13 l 1
346 13 m 1
 523 428 l 1
 408 476 l 1
 275 168 l 1
 270 160 l 1
 270 160 l 1
 211 20 l 1
 211 20 l 1
 208 13 l 1
 346 13 l 1
EndSplineSet
EndChar
StartChar: w
Encoding: 119 119 49
Width: 705
Flags: MW
HStem: 0 21G<136 287 136 136 136 136 136 136 417 568 417 417 417 417 417 417> 469 20G<143 143 561 561>
LayerCount: 2
Back
Fore
SplineSet
561 489 m 1
 702 447 l 1
 568 0 l 1
 417 0 l 1
 417 0 l 1
 417 0 l 1
 353 217 l 1
 287 0 l 1
 136 0 l 1
 136 0 l 1
 136 0 l 1
 2 447 l 1
 143 489 l 1
 211 259 l 1
 276 476 l 1
 276 476 l 1
 276 476 l 1
 428 476 l 1
 493 256 l 1
 561 489 l 1
18 438 m 1
 140 20 l 1
 206 239 l 1
 136 476 l 1
 112 467 l 1
 105 467 l 1
 86 460 l 1
 81 458 l 1
 62 454 l 1
 57 452 l 1
 37 445 l 1
 31 443 l 1
 18 438 l 1
281 13 m 1
 347 237 l 1
 281 456 l 1
 213 221 l 1
 211 219 l 1
 211 219 l 1
 151 13 l 1
 171 13 l 1
 178 13 l 1
 182 13 l 1
 200 13 l 1
 204 13 l 1
 226 13 l 1
 233 13 l 1
 254 13 l 1
 259 13 l 1
 281 13 l 1
290 467 m 1
 421 20 l 1
 487 239 l 1
 419 467 l 1
 393 467 l 1
 388 467 l 1
 366 467 l 1
 360 467 l 1
 338 467 l 1
 333 467 l 1
 311 467 l 1
 309 467 l 1
 309 467 l 1
 290 467 l 1
561 13 m 1
 686 438 l 1
 568 476 l 1
 498 239 l 1
 498 239 l 1
 496 232 l 1
 432 13 l 1
 463 13 l 1
 561 13 l 1
EndSplineSet
EndChar
StartChar: x
Encoding: 120 120 50
Width: 432
Flags: MW
HStem: 0 21G<124 124 311 311> 471 20G<124 124 311 311>
LayerCount: 2
Back
Fore
SplineSet
428 401 m 1
 309 245 l 1
 428 88 l 1
 311 0 l 1
 217 123 l 1
 124 0 l 1
 5 88 l 1
 126 245 l 1
 5 401 l 1
 124 491 l 1
 217 366 l 1
 311 491 l 1
 428 401 l 1
20 399 m 1
 133 253 l 1
 210 357 l 1
 122 476 l 1
 104 463 l 1
 100 461 l 1
 84 447 l 1
 80 443 l 1
 62 432 l 1
 58 428 l 1
 42 417 l 1
 38 412 l 1
 20 399 l 1
122 15 m 1
 210 132 l 1
 210 132 l 1
 217 141 l 1
 217 141 l 1
 296 245 l 1
 296 245 l 1
 302 253 l 1
 302 253 l 1
 413 399 l 1
 313 476 l 1
 219 350 l 1
 217 348 l 1
 217 348 l 1
 20 90 l 1
 122 15 l 1
413 90 m 1
 302 236 l 1
 225 132 l 1
 313 15 l 1
 331 26 l 1
 336 31 l 1
 351 44 l 1
 355 46 l 1
 373 60 l 1
 377 62 l 1
 393 75 l 1
 397 77 l 1
 413 90 l 1
EndSplineSet
EndChar
StartChar: y
Encoding: 121 121 51
Width: 498
Flags: MW
HStem: -228 21G<204 204> 469 20G<140 140 354 354>
LayerCount: 2
Back
Fore
SplineSet
328 54 m 1
 328 54 l 1
 328 54 l 1
 204 -228 l 1
 69 -171 l 1
 166 54 l 1
 5 432 l 1
 140 489 l 1
 246 242 l 1
 354 489 l 1
 489 432 l 1
 328 54 l 1
19 425 m 1
 173 70 l 1
 242 227 l 1
 133 476 l 1
 116 467 l 1
 109 465 l 1
 91 459 l 1
 85 456 l 1
 67 448 l 1
 63 445 l 1
 43 436 l 1
 38 434 l 1
 19 425 l 1
200 -215 m 1
 312 48 l 1
 312 48 l 1
 321 70 l 1
 321 70 l 1
 476 425 l 1
 361 476 l 1
 248 218 l 1
 246 213 l 1
 246 213 l 1
 180 54 l 1
 180 54 l 1
 175 46 l 1
 85 -164 l 1
 200 -215 l 1
EndSplineSet
EndChar
StartChar: z
Encoding: 122 122 52
Width: 375
Flags: MW
HStem: 0 144<70 81 70 70 81 83 83 89 89 118 118 124 124 153 153 159 159 188 201 236 236 367> 133 208<30 37 21 181 37 46 46 72 72 81 81 107 107 116 116 142 142 151 151 177 177 181 30 192 30 196 30 221 30 236 30 356> 330 145<19 172 19 295 188 188 19 354 19 369>
LayerCount: 2
Back
Fore
SplineSet
201 144 m 1xa0
 236 144 l 1
 367 144 l 1
 367 0 l 1
 81 0 l 1
 70 0 l 1
 4 144 l 1
 4 144 l 1
 172 330 l 1
 19 330 l 1
 19 475 l 1
 295 475 l 1
 304 475 l 1xa0
 310 464 l 1
 354 365 l 1
 354 365 l 1
 354 363 l 1
 365 341 l 1
 365 341 l 1x40
 369 330 l 1
 363 322 l 1
 363 322 l 1
 201 144 l 1xa0
30 341 m 1x40
 181 341 l 1
 229 392 l 1
 229 392 l 1
 247 414 l 1
 253 418 l 1
 253 418 l 1
 271 438 l 1
 275 444 l 1
 275 444 l 1
 295 464 l 1
 30 464 l 1
 30 444 l 1
 30 438 l 1
 30 418 l 1
 30 414 l 1
 30 392 l 1
 30 387 l 1
 30 365 l 1
 30 361 l 1
 30 341 l 1x40
188 330 m 1xa0
 19 144 l 1
 48 144 l 1
 54 144 l 1
 83 144 l 1
 89 144 l 1
 118 144 l 1
 124 144 l 1
 153 144 l 1
 159 144 l 1
 188 144 l 1
 354 330 l 1xa0
 358 333 l 1
 301 457 l 1
 196 341 l 1x40
 188 330 l 1xa0
356 114 m 1
 356 133 l 1
 236 133 l 1
 221 133 l 1
 192 133 l 1
 177 133 l 1
 151 133 l 1
 142 133 l 1
 116 133 l 1
 107 133 l 1
 81 133 l 1
 72 133 l 1
 46 133 l 1
 37 133 l 1
 21 133 l 1x40
 76 11 l 1
 78 11 l 1
 356 11 l 1
 356 31 l 1
 356 37 l 1
 356 57 l 1
 356 61 l 1
 356 83 l 1
 356 88 l 1
 356 109 l 1
 356 114 l 1
EndSplineSet
EndChar
